<?xml version="1.0" encoding="UTF-8" standalone="no"?>
<!DOCTYPE svg PUBLIC "-//W3C//DTD SVG 1.1//EN" "http://www.w3.org/Graphics/SVG/1.1/DTD/svg11.dtd">
<svg xmlns="http://www.w3.org/2000/svg" version="1.1" viewBox="0 0 500 500" width="500.0pt" height="500.0pt" xmlns:xlink="http://www.w3.org/1999/xlink">
<defs>
<path d="M 0.00 0.00 L 500.00 0.00 L 500.00 500.00 L 0.00 500.00 L 0.00 0.00 Z M 53.91 390.69 C 54.43 390.72 54.95 390.74 55.47 390.76 L 54.43 391.67 C 61.88 401.32 69.59 411.16 78.38 419.61 C 86.87 428.81 96.26 437.22 106.28 444.73 C 121.99 456.09 138.42 466.25 156.42 473.59 C 172.24 480.62 188.95 485.82 206.01 488.83 C 228.17 493.42 251.49 493.53 274.00 492.12 C 283.87 491.69 293.38 489.53 303.11 487.93 C 319.64 483.84 336.48 479.15 351.86 471.71 C 387.06 456.17 417.84 431.86 441.89 401.90 C 463.50 374.48 479.59 342.99 487.90 309.02 C 489.68 300.37 491.99 291.99 492.73 283.16 C 494.11 273.52 494.89 263.75 494.80 254.00 C 494.78 246.29 495.07 238.67 494.14 230.99 C 493.38 224.65 492.76 218.30 491.94 211.98 C 489.95 200.19 487.43 188.50 483.71 177.12 C 477.15 154.60 465.92 133.41 453.16 113.83 C 447.53 106.15 442.14 98.38 435.66 91.36 C 416.50 69.12 393.28 50.52 367.51 36.48 C 337.15 20.05 303.41 10.46 269.02 7.91 C 260.77 7.07 252.31 7.56 244.00 7.44 C 223.50 7.80 203.74 11.64 184.02 16.98 C 162.39 23.28 141.78 32.70 122.72 44.70 C 107.97 53.81 94.23 64.70 82.01 77.00 C 53.32 104.69 31.81 139.94 19.97 178.00 C 13.53 199.81 9.50 222.22 9.21 245.00 C 9.36 253.10 8.91 260.96 9.95 269.02 C 12.11 299.00 19.88 328.82 33.25 355.78 C 38.98 368.11 46.07 379.61 53.91 390.69 Z" id="p0" />
<path d="M 244.00 7.44 C 252.31 7.56 260.77 7.07 269.02 7.91 C 303.41 10.46 337.15 20.05 367.51 36.48 C 393.28 50.52 416.50 69.12 435.66 91.36 C 442.14 98.38 447.53 106.15 453.16 113.83 C 465.92 133.41 477.15 154.60 483.71 177.12 C 487.43 188.50 489.95 200.19 491.94 211.98 C 492.76 218.30 493.38 224.65 494.14 230.99 C 495.07 238.67 494.78 246.29 494.80 254.00 C 494.89 263.75 494.11 273.52 492.73 283.16 C 491.99 291.99 489.68 300.37 487.90 309.02 C 479.59 342.99 463.50 374.48 441.89 401.90 C 417.84 431.86 387.06 456.17 351.86 471.71 C 336.48 479.15 319.64 483.84 303.11 487.93 C 293.38 489.53 283.87 491.69 274.00 492.12 C 251.49 493.53 228.17 493.42 206.01 488.83 C 188.95 485.82 172.24 480.62 156.42 473.59 C 138.42 466.25 121.99 456.09 106.28 444.73 C 96.26 437.22 86.87 428.81 78.38 419.61 C 69.59 411.16 61.88 401.32 54.43 391.67 L 55.47 390.76 C 54.95 390.74 54.43 390.72 53.91 390.69 C 46.07 379.61 38.98 368.11 33.25 355.78 C 19.88 328.82 12.11 299.00 9.95 269.02 C 8.91 260.96 9.36 253.10 9.21 245.00 C 9.50 222.22 13.53 199.81 19.97 178.00 C 31.81 139.94 53.32 104.69 82.01 77.00 C 94.23 64.70 107.97 53.81 122.72 44.70 C 141.78 32.70 162.39 23.28 184.02 16.98 C 203.74 11.64 223.50 7.80 244.00 7.44 Z M 285.03 15.23 C 255.05 10.33 225.47 13.13 195.89 19.10 C 177.28 23.49 159.21 30.50 142.20 39.20 C 129.04 46.55 115.98 54.70 104.31 64.27 C 97.48 69.83 90.56 75.07 84.51 81.51 C 79.70 86.10 75.55 91.21 71.27 96.28 C 64.39 103.83 58.55 112.42 52.86 120.89 C 45.95 131.01 40.25 142.00 35.18 153.14 C 28.73 167.24 24.48 181.89 20.42 196.82 C 17.82 210.13 15.55 223.42 14.82 237.00 C 14.34 254.30 14.53 271.39 17.33 288.51 C 18.89 296.11 19.96 303.55 22.19 310.86 C 24.14 317.22 25.71 323.81 28.05 329.96 C 34.65 347.35 42.11 363.96 52.52 379.44 C 58.57 389.60 66.06 398.36 73.65 407.36 C 86.44 422.21 101.22 434.46 116.90 446.10 C 127.41 453.25 138.47 459.54 149.94 465.04 C 158.99 469.88 168.93 473.28 178.69 476.38 C 194.63 482.20 212.06 484.96 228.86 487.02 C 242.06 487.91 255.82 488.89 269.00 487.52 C 286.49 486.26 303.29 482.71 320.20 478.26 C 330.94 474.61 341.83 470.94 352.02 465.95 C 381.96 452.18 408.64 432.08 430.33 407.30 C 438.04 399.12 444.56 390.11 450.75 380.74 C 455.20 374.34 459.04 367.79 462.47 360.79 C 478.89 330.09 487.92 295.75 489.37 261.00 C 489.39 253.34 489.49 245.66 489.39 238.00 C 487.35 197.96 474.82 158.44 453.59 124.45 C 445.79 111.83 436.52 100.35 426.83 89.14 C 416.36 77.40 403.84 67.25 391.31 57.70 C 381.94 50.85 372.02 44.64 361.66 39.39 C 337.61 27.19 311.94 18.19 285.03 15.23 Z" id="p1" />
<path d="M 285.03 15.23 C 311.94 18.19 337.61 27.19 361.66 39.39 C 372.02 44.64 381.94 50.85 391.31 57.70 C 403.84 67.25 416.36 77.40 426.83 89.14 C 436.52 100.35 445.79 111.83 453.59 124.45 C 474.82 158.44 487.35 197.96 489.39 238.00 C 489.49 245.66 489.39 253.34 489.37 261.00 C 487.92 295.75 478.89 330.09 462.47 360.79 C 459.04 367.79 455.20 374.34 450.75 380.74 C 444.56 390.11 438.04 399.12 430.33 407.30 C 408.64 432.08 381.96 452.18 352.02 465.95 C 341.83 470.94 330.94 474.61 320.20 478.26 C 303.29 482.71 286.49 486.26 269.00 487.52 C 255.82 488.89 242.06 487.91 228.86 487.02 C 212.06 484.96 194.63 482.20 178.69 476.38 C 168.93 473.28 158.99 469.88 149.94 465.04 C 138.47 459.54 127.41 453.25 116.90 446.10 C 101.22 434.46 86.44 422.21 73.65 407.36 C 66.06 398.36 58.57 389.60 52.52 379.44 C 42.11 363.96 34.65 347.35 28.05 329.96 C 25.71 323.81 24.14 317.22 22.19 310.86 C 19.96 303.55 18.89 296.11 17.33 288.51 C 14.53 271.39 14.34 254.30 14.82 237.00 C 15.55 223.42 17.82 210.13 20.42 196.82 C 24.48 181.89 28.73 167.24 35.18 153.14 C 40.25 142.00 45.95 131.01 52.86 120.89 C 58.55 112.42 64.39 103.83 71.27 96.28 C 75.55 91.21 79.70 86.10 84.51 81.51 C 90.56 75.07 97.48 69.83 104.31 64.27 C 115.98 54.70 129.04 46.55 142.20 39.20 C 159.21 30.50 177.28 23.49 195.89 19.10 C 225.47 13.13 255.05 10.33 285.03 15.23 Z M 264.99 55.94 C 263.57 58.23 263.19 60.68 260.01 60.82 C 255.54 61.60 254.83 57.47 252.52 54.72 C 251.60 58.97 254.76 62.91 258.98 63.38 C 264.33 63.68 268.08 56.24 264.94 52.02 C 262.83 48.69 258.80 48.19 255.63 46.27 C 254.93 44.60 254.93 42.42 255.74 40.78 C 257.88 39.36 259.89 39.95 262.26 40.15 C 263.23 41.83 264.27 43.36 265.58 44.80 C 265.09 42.61 265.10 40.30 263.27 38.76 C 261.77 37.63 259.33 36.62 257.49 37.45 C 252.20 39.00 252.26 47.79 256.93 50.06 C 260.10 51.82 263.08 52.55 264.99 55.94 Z M 225.64 65.43 C 225.92 61.30 225.30 57.23 225.36 53.11 C 227.80 52.35 230.44 52.21 232.94 51.61 L 232.85 49.98 C 230.28 49.52 227.46 49.74 224.84 49.81 C 224.27 47.50 223.73 45.27 223.63 42.87 C 226.28 40.32 232.47 42.36 233.59 38.51 C 229.74 38.60 225.67 38.88 221.98 40.03 C 221.55 43.95 222.64 48.07 222.98 51.99 C 223.66 56.34 223.49 61.57 225.64 65.43 Z M 284.97 56.65 C 283.34 58.36 281.86 60.55 279.86 61.83 C 276.95 63.45 273.05 61.36 272.75 58.03 C 272.19 53.18 272.07 46.58 275.73 42.81 C 277.27 41.10 279.35 40.05 281.46 41.60 C 283.13 43.38 284.34 45.60 285.91 47.49 C 285.70 45.45 285.98 43.11 284.61 41.42 C 283.21 39.59 280.33 38.06 278.06 39.07 C 274.85 40.12 272.77 42.72 271.76 45.87 C 270.20 50.87 269.66 56.98 272.27 61.74 C 273.90 65.50 279.49 66.00 282.21 63.19 C 284.32 61.45 284.63 59.21 284.97 56.65 Z M 205.17 42.14 C 202.54 43.51 201.04 46.03 200.88 48.97 C 200.00 55.80 202.26 63.98 208.78 67.31 C 213.01 69.04 216.52 65.68 217.74 61.87 C 219.27 56.47 217.60 50.06 214.50 45.48 C 212.38 42.40 208.82 40.72 205.17 42.14 Z M 289.94 67.46 C 290.66 65.00 291.23 62.54 291.66 60.01 C 292.67 53.49 294.69 47.60 294.47 40.89 C 291.47 44.55 291.81 50.44 290.63 54.98 C 290.09 58.85 287.84 63.89 289.94 67.46 Z M 295.50 67.56 C 299.71 69.30 304.02 70.58 308.58 70.96 C 308.19 70.19 307.76 69.44 307.31 68.70 C 304.46 67.17 301.01 66.62 297.92 65.68 C 298.74 62.81 299.61 59.95 300.44 57.08 C 303.53 57.77 306.74 58.78 309.90 58.90 L 310.73 57.86 C 307.65 56.06 304.44 55.18 301.07 54.12 C 301.88 51.53 302.73 48.97 303.66 46.42 C 307.09 47.06 311.45 49.64 314.57 47.15 C 310.70 45.45 306.66 44.29 302.56 43.26 C 299.88 51.28 297.75 59.42 295.50 67.56 Z M 312.24 72.68 C 315.98 68.72 317.15 62.37 319.63 57.52 C 319.94 56.57 320.41 56.13 321.04 56.21 C 323.16 62.52 321.76 70.43 323.13 76.95 C 325.27 77.17 325.78 74.09 326.57 72.60 C 328.74 66.03 331.90 59.84 333.65 53.16 C 329.04 58.14 328.78 65.43 324.70 71.02 C 323.61 63.53 323.76 56.01 322.95 48.52 C 320.08 50.30 319.57 53.23 318.36 56.17 C 316.48 61.73 313.76 67.03 312.24 72.68 Z M 177.53 63.44 C 173.91 60.78 170.62 55.16 165.90 54.84 C 169.27 58.93 173.74 61.90 177.09 65.96 C 179.88 69.42 179.84 73.71 183.08 76.51 C 182.30 72.08 180.08 68.41 179.78 64.01 C 179.41 59.24 180.62 54.51 180.77 49.65 C 179.76 50.43 178.36 50.56 178.35 52.06 C 178.08 55.87 178.22 59.66 177.53 63.44 Z M 156.86 63.15 C 159.49 67.91 161.94 72.76 164.25 77.68 C 165.27 79.88 166.50 81.68 168.16 83.45 C 166.72 76.03 161.57 69.56 158.95 62.43 C 160.90 60.96 162.56 59.44 163.85 57.33 C 159.16 58.26 154.72 60.52 150.67 62.99 L 150.90 64.88 C 152.94 64.44 154.86 63.79 156.86 63.15 Z M 334.11 78.93 C 334.19 75.78 333.75 72.14 335.30 69.31 C 336.76 66.55 338.73 63.31 341.48 61.70 C 343.22 61.20 346.19 60.94 347.54 62.43 C 348.94 64.36 349.29 67.07 350.15 69.27 C 350.47 66.85 351.18 64.39 350.08 62.07 C 348.93 58.42 343.55 58.13 340.76 59.74 C 335.28 63.44 332.15 70.56 331.88 77.02 C 332.09 81.58 336.52 85.27 340.97 83.05 C 342.32 82.44 346.67 79.61 345.03 77.97 C 343.26 78.82 341.63 80.07 339.78 80.73 C 337.93 81.09 335.79 79.62 334.11 78.93 Z M 152.97 78.05 C 150.30 74.11 148.70 68.43 144.82 65.59 C 145.68 69.64 147.85 72.63 149.79 76.19 C 151.62 79.38 153.22 82.70 155.13 85.84 C 156.10 87.10 156.41 88.56 158.36 88.17 C 157.14 84.38 154.93 81.45 152.97 78.05 Z M 345.86 87.64 C 349.45 89.92 353.07 93.03 357.12 94.33 L 357.52 92.90 C 355.21 90.34 351.90 88.87 349.37 86.53 C 349.61 83.84 351.97 81.28 353.37 79.06 C 356.56 80.62 359.68 82.30 362.92 83.77 C 362.44 79.51 358.28 78.48 355.17 76.51 C 356.55 74.05 358.08 71.84 359.89 69.67 C 362.61 71.25 365.28 73.05 368.16 74.34 C 368.87 73.83 369.55 73.31 370.22 72.76 C 366.77 70.62 363.36 68.41 359.85 66.37 C 356.42 70.13 354.43 74.43 351.65 78.62 C 349.68 81.61 347.72 84.59 345.86 87.64 Z M 146.08 84.33 C 147.02 85.19 147.96 86.05 148.90 86.92 C 148.45 89.41 148.93 91.40 146.33 92.76 C 143.31 94.93 140.15 92.11 137.27 91.07 C 138.39 92.58 139.28 94.12 140.93 95.10 C 144.59 97.61 150.60 94.47 150.58 90.00 C 150.69 86.19 147.60 81.68 143.49 81.63 C 140.50 81.59 137.44 82.44 134.50 82.93 C 133.03 80.72 130.95 78.79 133.21 76.22 C 135.43 73.29 139.51 75.58 142.48 75.89 C 141.38 74.72 140.28 72.80 138.62 72.47 C 136.31 72.11 133.57 71.89 132.00 73.97 C 128.76 77.81 131.31 84.01 135.93 85.29 C 139.27 85.51 142.75 84.72 146.08 84.33 Z M 111.96 89.75 C 115.49 94.30 119.12 98.77 122.66 103.30 C 124.75 105.88 125.97 108.58 129.44 109.50 C 127.26 105.98 124.54 102.99 121.91 99.81 C 123.17 98.91 124.46 97.38 126.01 97.07 C 130.64 96.59 134.72 101.87 139.16 100.99 C 138.83 99.97 138.18 99.24 137.20 98.82 C 134.31 97.29 131.27 96.05 128.32 94.64 C 128.50 92.92 128.95 91.03 128.62 89.32 C 127.39 86.19 124.51 83.54 121.05 83.27 C 117.68 84.69 114.73 87.41 111.96 89.75 Z M 406.91 304.95 C 412.67 288.89 415.81 272.07 416.18 255.00 C 416.31 242.79 415.88 230.79 413.25 218.81 C 411.55 211.33 410.18 203.96 407.28 196.82 C 404.03 186.91 399.93 177.45 394.37 168.62 C 390.98 161.91 386.70 155.83 381.94 150.04 C 365.02 127.90 342.42 110.31 316.84 99.29 C 306.60 95.18 295.92 91.29 285.01 89.37 C 278.65 88.20 272.25 87.25 265.82 86.54 C 259.95 85.97 253.91 86.33 248.00 86.25 C 238.04 85.95 227.81 87.98 217.99 89.56 C 212.06 90.49 206.77 92.56 201.01 94.19 C 178.09 101.57 157.21 114.24 139.61 130.64 C 131.80 137.36 125.82 145.44 119.37 153.39 C 113.95 161.08 108.87 169.09 104.72 177.54 C 101.93 183.67 98.80 189.50 97.06 196.06 C 93.77 205.86 90.82 215.67 89.70 226.00 C 86.92 244.52 87.41 263.61 90.85 282.01 C 95.10 301.54 102.16 321.12 113.18 337.89 C 119.14 347.66 126.31 356.48 134.18 364.77 C 140.45 370.47 146.55 376.71 153.39 381.66 C 160.33 386.86 167.89 391.25 175.42 395.53 C 187.47 401.37 199.94 406.83 212.99 409.90 C 219.65 411.26 226.36 412.75 233.13 413.46 C 255.98 415.10 278.23 414.51 300.18 407.32 C 317.72 401.84 334.28 394.07 348.98 382.95 C 375.36 363.34 396.27 336.17 406.91 304.95 Z M 367.63 103.13 C 370.78 102.52 373.11 100.61 375.94 99.31 C 378.15 100.55 379.96 102.77 381.69 104.60 C 380.44 107.17 379.36 109.77 378.73 112.57 C 381.46 111.16 381.96 108.70 383.18 106.15 C 385.11 101.81 387.11 97.51 389.32 93.30 C 390.22 91.59 390.90 89.93 390.92 87.96 C 388.17 88.05 385.85 90.22 383.63 91.68 C 378.41 95.60 372.32 98.68 367.63 103.13 Z M 97.95 103.12 C 103.66 109.04 109.00 115.54 115.15 120.99 C 118.70 119.22 121.63 115.77 124.22 112.83 L 123.06 111.18 C 120.20 113.05 118.12 116.32 115.04 117.71 C 112.85 116.59 110.98 114.97 109.59 112.94 C 109.26 111.76 109.44 110.88 110.13 110.29 C 111.93 108.16 113.93 106.65 115.14 104.08 L 113.90 103.65 C 111.31 105.26 109.11 107.58 106.85 109.62 C 104.87 107.76 102.94 105.85 101.05 103.90 C 103.15 101.54 105.65 99.49 107.59 97.00 C 107.47 96.21 107.31 95.43 107.13 94.65 C 103.88 97.18 100.91 100.24 97.95 103.12 Z M 382.49 116.26 C 387.70 112.56 391.77 107.61 396.95 103.91 C 396.14 111.44 391.20 117.19 390.43 124.79 C 394.93 122.10 398.14 118.46 401.92 114.91 C 404.73 112.17 407.66 109.99 409.52 106.42 C 407.26 107.82 405.31 109.57 403.42 111.43 C 400.61 114.18 397.44 116.40 394.42 118.90 C 396.22 114.40 397.19 109.72 399.29 105.34 C 400.28 102.87 401.72 100.63 400.98 97.89 C 396.66 100.10 393.39 104.55 389.68 107.70 C 386.97 110.41 383.54 112.44 382.49 116.26 Z M 105.51 127.81 C 98.13 124.96 91.67 120.16 84.15 117.81 C 84.98 119.20 85.38 120.42 87.01 121.02 C 93.72 124.22 100.54 127.30 107.03 130.94 C 107.67 130.51 108.31 130.09 108.94 129.67 C 106.28 125.18 103.23 120.95 100.47 116.53 C 98.40 113.29 96.61 110.16 93.71 107.57 C 93.34 109.83 94.67 111.33 95.77 113.13 C 99.10 117.99 102.64 122.65 105.51 127.81 Z M 414.31 112.79 C 408.96 117.31 403.40 121.56 397.91 125.92 C 397.05 126.78 395.34 127.67 395.45 129.01 C 396.83 131.36 398.79 133.40 400.94 135.06 C 403.25 137.29 407.00 135.49 409.50 134.43 C 413.63 132.09 418.10 128.36 419.82 123.82 C 421.29 119.32 417.30 115.52 414.31 112.79 Z M 79.61 124.73 C 83.82 128.97 89.30 132.28 94.06 135.96 C 96.39 137.63 98.18 139.57 101.10 140.05 C 99.85 136.61 95.25 134.72 92.57 132.42 C 88.54 129.84 84.46 125.23 79.61 124.73 Z M 90.77 143.38 C 83.14 142.70 76.13 140.89 68.49 141.21 C 70.22 144.63 73.28 145.72 76.36 147.58 C 81.22 150.26 85.13 153.84 90.33 155.96 C 89.15 154.29 87.87 152.95 86.09 151.91 C 82.29 149.64 78.74 147.05 75.20 144.40 C 79.87 144.27 84.42 144.10 89.00 145.21 C 91.96 145.95 94.35 145.91 97.34 145.25 C 93.06 141.30 87.91 139.14 83.17 135.88 C 80.68 134.24 78.64 132.36 75.65 131.60 C 76.73 133.93 78.87 134.74 80.90 136.10 C 84.43 138.21 87.62 140.75 90.77 143.38 Z M 434.12 146.03 C 427.98 150.65 420.68 153.35 414.73 158.15 C 419.15 157.58 422.18 155.06 425.86 152.86 C 428.98 150.90 432.28 149.31 435.64 147.81 C 437.35 149.85 437.96 151.88 441.05 151.70 C 439.25 148.29 437.35 144.92 435.29 141.66 C 434.78 140.76 433.95 140.13 432.79 139.80 C 432.69 142.01 433.49 143.94 434.12 146.03 Z M 58.52 159.98 C 60.16 161.78 61.84 162.97 64.06 163.97 C 70.18 166.67 74.84 170.39 81.89 169.97 C 83.50 168.07 85.38 166.76 85.35 164.01 C 85.29 160.09 81.99 157.85 78.86 156.23 C 73.90 153.82 68.99 150.72 63.70 149.17 C 64.99 151.75 68.44 152.87 70.88 154.13 C 74.48 155.96 78.80 157.52 81.73 160.34 C 83.71 161.75 82.80 164.94 81.52 166.59 C 80.36 168.25 77.86 167.90 76.15 167.58 C 70.01 165.88 64.77 161.14 58.52 159.98 Z M 420.67 167.20 C 422.19 171.38 424.01 175.38 426.18 179.26 C 427.94 177.38 426.65 175.94 426.06 173.93 C 425.31 171.97 424.44 170.02 423.96 167.99 C 426.25 166.16 429.25 165.26 431.98 164.29 C 433.61 167.57 434.70 170.75 437.67 173.13 C 437.17 169.98 435.89 167.09 435.14 164.01 C 435.22 161.18 439.55 160.19 441.78 160.10 C 444.00 163.48 444.48 167.04 447.99 169.49 C 447.43 165.21 445.96 160.51 443.15 157.17 C 435.52 160.13 428.06 163.66 420.67 167.20 Z M 439.68 192.35 C 436.81 191.74 432.82 192.80 431.64 189.30 C 430.39 186.45 432.43 184.17 434.44 182.40 C 439.32 178.97 445.21 178.09 450.87 180.04 C 451.30 181.34 451.77 182.66 452.05 183.99 C 451.16 186.22 449.70 188.22 448.61 190.36 C 452.24 189.35 453.48 186.97 455.20 183.92 C 453.67 180.97 452.65 177.68 449.04 176.75 C 443.90 175.56 437.93 177.90 433.62 180.66 C 431.11 182.49 427.96 185.57 428.98 189.01 C 429.58 192.72 433.60 194.57 436.99 194.68 C 438.86 194.83 438.78 193.61 439.68 192.35 Z M 49.70 183.40 C 55.74 185.81 61.70 186.39 67.44 189.45 C 60.52 191.27 53.59 192.21 46.58 193.46 C 47.28 194.64 47.48 195.67 48.99 196.01 C 51.57 196.91 54.30 197.38 56.93 198.11 C 61.90 199.38 66.30 201.14 71.38 201.84 C 69.58 199.47 67.14 199.39 64.50 198.55 C 60.56 197.54 56.74 196.19 52.91 194.83 C 59.20 192.98 65.60 192.18 72.00 190.89 C 73.22 190.81 74.02 190.18 74.38 189.02 C 70.00 186.90 64.68 186.41 59.96 184.98 C 56.89 184.18 53.85 182.83 50.72 182.38 L 49.70 183.40 Z M 433.44 201.94 C 437.57 201.34 441.61 200.36 445.77 199.97 C 446.40 203.14 446.69 206.26 446.78 209.49 C 443.01 210.48 438.28 210.69 435.31 213.28 C 439.49 213.23 443.46 212.24 447.46 211.13 C 452.39 209.75 456.96 209.74 461.46 207.11 C 457.65 206.88 454.12 207.72 450.50 208.79 C 449.53 205.79 448.58 202.92 448.25 199.76 C 451.30 197.44 455.80 198.36 458.74 195.21 C 451.20 195.80 444.49 198.26 436.98 199.58 C 435.17 199.77 434.56 200.62 433.44 201.94 Z M 42.36 215.84 C 50.80 216.70 59.06 218.86 67.47 219.86 C 64.99 217.00 59.76 217.23 56.26 216.26 C 56.56 214.63 56.77 212.92 57.29 211.33 C 60.37 209.05 65.09 208.94 68.58 207.34 C 69.15 206.66 69.68 205.95 70.17 205.20 C 65.79 205.74 61.63 207.06 57.54 208.67 C 56.17 206.47 55.05 204.43 52.46 203.48 C 49.76 202.23 46.88 202.96 44.54 204.59 C 42.66 207.74 42.65 212.28 42.36 215.84 Z M 437.33 219.74 C 443.75 220.10 449.89 218.07 456.34 218.56 C 452.26 221.94 447.73 224.51 443.14 227.13 C 441.01 228.26 439.66 229.88 438.37 231.88 C 447.02 231.08 456.00 230.67 464.43 228.51 C 462.89 227.96 461.48 227.41 459.82 227.70 C 455.07 228.36 450.41 229.10 445.59 228.98 C 450.85 223.74 457.88 221.50 463.41 216.53 C 459.67 215.00 454.95 216.64 450.98 216.94 C 446.58 217.66 441.25 217.54 437.33 219.74 Z M 40.49 223.67 C 40.12 227.16 39.90 230.66 39.58 234.16 C 47.93 235.42 56.36 235.95 64.74 236.99 C 65.43 232.49 65.95 228.02 65.71 223.45 C 62.41 225.52 63.08 231.54 62.21 234.95 C 59.12 234.79 56.29 234.34 53.30 233.55 C 53.71 230.44 53.96 227.36 53.98 224.23 C 53.26 224.27 52.55 224.31 51.84 224.34 C 51.43 227.31 51.01 230.27 50.66 233.24 C 47.88 233.25 45.29 232.99 42.58 232.40 C 42.80 228.86 43.26 225.29 43.25 221.74 C 42.17 221.68 41.25 222.32 40.49 223.67 Z M 449.19 236.22 C 446.55 236.65 443.33 237.44 441.39 239.40 C 438.70 242.18 438.37 246.90 441.45 249.54 C 447.62 253.74 455.63 253.93 461.96 249.92 C 465.39 247.85 466.91 243.15 464.14 239.88 C 460.78 236.03 453.90 235.73 449.19 236.22 Z M 38.88 242.48 C 41.90 242.93 44.95 242.94 47.98 243.25 C 48.77 243.23 49.34 243.58 49.69 244.30 C 50.11 247.21 49.64 250.29 49.57 253.22 C 45.81 253.30 42.07 253.14 38.32 253.44 C 42.08 255.57 45.84 255.11 50.00 255.22 C 55.01 255.16 59.80 255.55 64.77 255.05 C 61.25 252.88 56.12 253.82 52.09 253.28 C 52.24 250.16 52.39 247.05 52.52 243.94 C 56.76 243.51 61.63 244.40 65.58 242.79 C 58.29 241.00 51.42 241.55 44.00 241.36 C 42.03 241.48 40.37 240.93 38.88 242.48 Z M 439.26 267.49 C 440.03 267.48 440.81 267.46 441.59 267.44 C 441.68 264.69 441.80 261.93 442.01 259.18 C 449.62 258.85 457.06 260.12 464.63 260.29 C 464.66 259.80 464.68 259.30 464.70 258.80 C 459.12 258.43 453.56 258.00 448.00 257.37 C 445.38 257.19 442.18 256.67 439.68 257.67 C 439.11 260.87 439.27 264.26 439.26 267.49 Z M 40.45 274.65 C 41.19 274.65 41.93 274.64 42.68 274.64 C 42.67 272.65 42.65 270.66 42.63 268.67 C 50.29 267.30 58.10 268.00 65.67 266.28 C 62.55 264.60 59.53 265.28 56.16 265.56 C 51.69 266.08 47.19 266.38 42.69 266.61 C 42.30 264.63 41.91 262.65 41.52 260.68 L 39.70 261.58 C 39.25 265.87 40.18 270.36 40.45 274.65 Z M 445.18 272.16 C 443.08 272.63 440.37 273.12 439.05 274.98 C 436.22 278.26 437.13 284.00 441.07 286.00 C 446.64 288.72 453.52 290.58 459.30 287.35 C 462.21 285.87 464.92 281.47 462.66 278.37 C 459.53 272.66 451.10 270.96 445.18 272.16 Z M 40.70 281.73 C 48.03 282.00 54.91 279.50 62.26 279.40 C 63.38 280.52 64.54 281.58 65.47 282.86 C 65.33 284.15 65.51 286.55 64.36 287.37 C 57.86 291.63 49.41 290.12 43.20 293.67 C 48.39 293.75 53.65 292.33 58.85 291.37 C 61.47 290.75 64.91 289.86 66.61 287.62 C 69.01 284.69 67.56 279.43 63.89 278.26 C 60.80 277.04 56.70 278.25 53.50 278.69 C 49.08 279.51 44.86 279.89 40.70 281.73 Z M 443.71 309.13 C 444.20 307.19 444.77 305.18 445.00 303.20 C 444.35 302.69 443.65 302.23 442.89 301.83 C 442.31 303.46 441.73 305.09 441.15 306.72 C 439.63 306.29 438.06 305.93 436.60 305.34 C 434.19 301.91 435.25 296.65 439.59 295.52 C 443.36 294.68 448.23 295.54 451.62 297.41 C 453.52 298.62 456.07 300.45 455.91 302.99 C 456.18 305.27 455.19 306.72 453.93 308.46 C 452.15 308.96 450.39 309.51 448.64 310.12 C 451.97 311.11 455.56 310.77 457.55 307.59 C 459.88 303.85 457.70 298.91 454.18 296.82 C 448.84 293.84 443.17 291.49 437.16 294.19 C 431.49 295.67 431.08 306.64 437.10 307.82 C 439.29 308.49 441.47 308.79 443.71 309.13 Z M 58.44 296.50 C 53.88 297.52 47.47 300.83 46.68 305.96 C 45.65 310.19 49.34 313.03 52.98 313.95 C 59.60 314.71 67.24 312.74 71.18 306.97 C 73.35 303.26 71.90 298.63 68.00 296.90 C 65.01 295.86 61.53 295.97 58.44 296.50 Z M 55.53 325.09 C 56.56 323.53 57.52 321.94 58.42 320.30 C 56.63 321.53 54.17 322.99 53.42 325.15 C 52.68 327.42 53.94 329.84 55.56 331.40 C 59.15 333.89 64.58 332.36 66.07 328.15 C 66.82 325.22 66.27 321.98 67.05 319.06 C 68.05 316.69 71.45 316.12 73.49 317.53 C 75.68 318.69 76.08 321.36 75.50 323.56 C 74.64 325.30 73.15 326.76 71.97 328.30 C 74.08 327.67 75.82 327.06 77.14 325.19 C 79.69 322.46 78.06 317.45 75.20 315.65 C 71.34 314.57 66.22 315.28 64.21 319.20 C 63.36 322.15 64.17 325.55 63.55 328.58 C 62.31 330.69 59.93 331.40 57.73 330.32 C 56.43 329.05 56.11 326.75 55.53 325.09 Z M 427.71 316.51 C 432.03 318.98 437.31 319.77 440.41 323.54 C 443.24 326.77 445.70 330.10 449.38 332.47 C 448.18 328.07 443.76 325.32 441.22 321.45 C 445.63 320.76 450.94 321.31 454.69 318.90 C 449.43 318.25 444.22 318.79 438.97 318.50 C 435.68 318.30 432.52 316.13 429.34 315.60 C 428.79 315.88 428.24 316.18 427.71 316.51 Z M 392.23 359.09 C 392.43 361.45 391.65 363.51 390.96 365.71 C 389.52 365.59 388.08 365.47 386.64 365.35 C 385.57 367.77 384.51 370.19 383.16 372.47 C 382.98 376.94 386.75 380.97 389.90 383.70 C 393.29 382.65 395.33 380.94 395.12 377.16 C 395.29 378.61 395.31 380.05 395.35 381.52 C 395.39 385.67 394.09 389.39 392.69 393.23 C 391.98 395.27 391.85 396.86 393.39 398.52 C 395.27 399.16 397.07 396.49 397.27 394.86 C 398.06 389.49 398.88 384.27 400.92 379.19 C 401.51 377.56 402.12 375.92 402.72 374.28 C 403.83 374.34 404.94 374.40 406.05 374.46 L 407.52 374.58 C 403.90 380.12 403.00 387.30 400.99 393.58 C 404.68 389.72 406.28 385.20 409.33 380.81 C 409.51 383.76 409.33 386.41 408.35 389.20 C 408.71 390.63 410.38 392.81 409.14 394.08 C 406.96 397.03 404.34 399.58 402.45 402.76 C 407.47 400.61 410.32 395.83 415.05 393.44 C 418.21 395.37 416.26 398.83 416.98 401.92 C 418.20 405.48 424.30 403.35 423.78 399.99 C 424.01 396.81 422.08 394.84 420.50 392.34 L 420.37 392.12 C 420.39 390.94 419.72 388.72 420.85 387.91 C 423.03 385.64 426.80 384.00 428.06 381.08 C 427.14 379.04 426.66 378.27 424.34 378.10 C 423.74 378.11 423.13 378.12 422.53 378.14 C 420.57 380.36 418.54 382.43 416.35 384.41 C 415.53 384.61 414.71 384.82 413.89 385.03 C 411.83 380.98 413.49 376.91 412.12 372.79 C 410.49 372.44 408.86 372.22 407.20 371.96 C 408.98 368.38 410.70 364.95 411.10 360.89 C 409.58 361.58 407.51 362.06 406.52 363.51 C 404.70 365.91 404.01 369.40 403.10 372.24 C 402.03 373.35 401.49 375.97 399.72 374.31 C 400.88 369.89 402.22 364.85 401.84 360.26 C 400.85 359.73 399.79 359.32 398.76 358.87 C 397.71 355.44 395.05 354.25 392.23 352.51 C 390.32 354.69 391.84 356.63 392.23 359.09 Z M 88.62 360.92 C 89.86 366.22 96.10 366.90 100.35 368.70 C 101.15 369.59 102.60 370.13 102.43 371.51 C 101.83 372.21 101.12 372.81 100.30 373.33 C 97.12 373.69 94.01 373.81 90.99 374.97 C 85.12 377.11 79.33 376.84 73.25 377.41 C 71.21 379.21 72.74 380.05 73.49 382.04 C 78.88 380.53 83.59 378.54 89.28 379.97 C 91.87 381.31 92.10 383.23 92.64 385.86 C 88.70 386.36 84.77 386.34 80.81 386.18 C 81.14 388.16 80.95 391.08 82.46 392.57 C 84.81 394.26 87.73 395.23 90.32 396.52 C 90.50 397.40 90.68 398.27 90.86 399.14 C 89.40 399.54 87.97 400.04 86.53 400.53 C 86.41 401.38 86.28 402.23 86.16 403.08 C 87.09 403.49 88.03 403.87 88.99 404.23 C 90.79 403.11 91.50 401.39 92.33 399.54 C 94.61 399.67 96.90 399.70 99.19 399.76 C 99.21 397.96 99.11 396.10 99.39 394.32 C 100.71 392.99 102.37 391.92 103.67 390.57 C 104.21 389.30 104.54 387.93 104.93 386.60 C 107.05 386.17 109.17 385.75 111.30 385.37 C 111.50 386.13 111.66 386.90 111.78 387.67 C 108.53 392.54 104.44 397.83 99.69 401.30 C 98.90 402.86 98.12 404.36 97.57 406.03 C 97.65 407.57 98.69 409.04 99.28 410.44 C 102.95 407.20 105.35 403.19 108.43 399.46 C 112.46 394.41 117.69 389.61 121.20 384.21 C 122.69 382.17 121.30 378.95 119.45 377.60 C 115.56 376.26 108.92 378.75 105.70 375.70 L 106.74 374.69 C 110.69 373.24 114.69 373.22 118.83 373.56 C 119.53 369.19 120.44 366.03 123.33 362.59 C 122.61 361.93 121.88 361.28 121.12 360.66 C 117.51 362.22 115.25 365.36 110.99 365.99 C 102.76 366.79 96.34 361.51 88.62 360.92 Z M 347.38 398.80 C 350.09 404.06 354.89 409.79 354.16 416.02 C 353.64 421.65 349.89 425.34 346.01 429.02 C 343.11 431.91 339.87 433.59 338.74 437.78 C 340.92 438.10 342.82 439.11 344.86 437.76 C 349.84 434.38 351.43 428.12 357.21 425.47 C 357.27 428.04 357.75 431.29 356.61 433.67 C 354.87 436.80 351.74 439.36 349.32 441.97 C 348.17 443.31 347.19 444.74 346.19 446.20 C 348.51 445.83 350.78 445.43 352.97 444.56 C 358.23 440.65 362.06 435.50 363.07 428.89 C 362.95 425.26 360.22 420.88 361.48 417.40 C 363.61 411.92 367.03 406.55 368.52 400.83 C 368.75 398.71 366.61 397.82 364.86 397.72 C 363.27 397.92 361.71 398.45 360.17 398.87 C 360.57 400.56 361.05 402.29 361.19 404.01 C 361.04 406.11 359.88 408.21 358.69 409.91 L 357.60 409.44 C 355.68 405.99 355.68 401.49 354.10 397.90 C 352.03 395.09 348.81 395.66 347.38 398.80 Z M 154.34 400.35 C 151.17 401.02 150.27 405.42 152.31 407.66 C 154.87 410.89 157.65 414.23 160.99 416.68 C 163.23 416.11 164.39 415.09 165.48 413.10 C 165.40 407.33 161.59 402.83 156.54 400.47 C 155.74 400.12 155.01 400.08 154.34 400.35 Z M 124.79 412.69 C 127.33 414.27 130.02 415.45 132.98 415.93 C 137.62 416.72 142.22 417.86 146.89 418.38 C 147.91 418.40 148.93 418.41 149.95 418.39 C 149.81 419.06 149.67 419.72 149.53 420.38 C 146.33 421.43 143.36 422.62 140.02 423.05 C 135.70 423.57 131.26 423.00 127.00 422.72 C 125.96 422.63 123.02 422.49 123.24 424.15 C 122.58 426.41 124.45 426.94 125.93 428.11 C 127.96 429.38 130.89 429.27 133.21 429.87 C 134.37 432.15 134.58 436.61 137.22 437.66 C 143.17 438.56 149.94 435.27 155.56 433.41 C 158.19 432.64 159.32 430.77 160.70 428.59 C 159.67 426.59 158.73 424.56 157.90 422.46 C 158.91 422.33 159.92 422.19 160.93 422.06 C 163.83 424.42 166.46 426.02 170.33 426.02 C 169.56 424.27 169.48 422.53 167.53 421.68 C 164.55 420.28 161.34 418.92 158.25 417.79 C 154.95 416.86 151.43 416.71 148.06 416.07 C 141.25 415.07 134.81 413.55 128.19 411.71 C 126.67 411.20 126.00 411.91 124.79 412.69 Z M 363.43 427.05 C 364.94 429.11 367.77 428.38 370.00 428.53 C 374.32 428.33 378.74 428.70 383.02 428.14 C 386.04 426.66 384.82 423.01 382.83 421.14 C 381.00 419.35 377.98 415.44 375.14 417.22 C 370.79 419.10 364.38 421.83 363.43 427.05 Z M 229.82 419.47 C 228.71 425.54 227.49 431.39 225.07 437.11 C 224.44 436.45 223.78 435.83 223.09 435.24 C 222.42 434.83 221.72 434.55 220.99 434.39 C 217.85 436.18 215.40 438.99 212.08 440.61 C 211.25 436.01 211.78 431.67 211.84 427.03 C 209.93 426.08 208.38 424.86 206.11 425.27 C 204.07 426.23 202.45 428.30 200.89 429.89 C 197.55 433.64 193.53 436.42 189.90 439.86 C 193.71 441.03 197.08 440.71 200.90 439.85 L 201.05 441.67 C 197.12 444.29 192.44 444.92 188.10 446.91 C 185.09 448.26 182.23 447.70 179.06 448.04 C 176.67 449.19 177.40 452.06 179.99 451.87 C 187.56 452.74 191.86 447.21 199.25 447.10 C 197.78 449.67 195.80 451.64 193.70 453.68 C 192.24 455.02 191.88 456.72 192.46 458.59 C 193.72 459.81 196.28 459.05 197.89 459.15 C 198.74 460.44 199.92 464.40 202.01 463.32 C 205.47 457.87 207.28 451.35 210.44 445.66 L 211.32 445.02 C 213.21 443.50 215.14 442.43 217.38 441.49 C 217.23 446.97 213.45 449.59 211.84 454.74 C 214.53 454.27 217.20 453.64 219.88 453.08 C 219.13 458.46 217.51 463.60 215.72 468.71 C 214.74 471.18 213.38 473.52 212.57 476.04 C 212.08 477.80 215.00 478.65 216.09 479.50 C 218.68 475.89 218.81 471.94 219.37 467.71 C 220.76 462.31 222.39 457.51 221.72 451.79 C 222.69 451.14 223.66 450.50 224.66 449.92 C 228.24 447.96 234.41 446.57 235.41 442.06 C 235.06 440.98 234.67 439.92 234.24 438.88 C 231.91 441.81 229.47 444.31 226.28 446.32 L 223.47 446.36 C 223.64 444.45 223.87 442.55 224.22 440.66 C 228.05 436.60 229.77 431.27 230.57 425.85 C 230.92 423.64 230.48 421.57 229.82 419.47 Z M 295.90 431.88 C 295.59 433.58 295.38 435.28 295.21 436.99 C 294.76 437.19 294.31 437.38 293.86 437.58 C 293.27 438.03 292.68 438.49 292.09 438.95 C 291.26 439.79 289.24 440.81 289.23 442.09 C 288.76 444.15 292.84 444.98 292.18 446.93 C 290.31 451.83 285.68 455.59 281.45 458.44 C 280.94 457.58 280.41 456.73 279.89 455.88 C 280.77 453.62 281.64 451.35 282.53 449.09 C 282.38 447.70 282.23 446.32 282.08 444.93 C 282.76 444.25 283.45 443.58 284.15 442.92 C 285.26 441.73 286.71 440.86 286.80 439.11 C 286.00 437.48 284.39 436.18 283.10 434.93 C 282.88 434.24 282.67 433.55 282.45 432.86 C 282.09 431.69 281.73 430.51 281.38 429.33 C 279.33 428.99 276.97 427.27 275.76 429.85 C 274.35 433.78 276.41 438.55 273.34 442.36 C 270.23 446.93 265.02 447.26 261.47 450.85 C 261.46 452.67 262.98 454.44 263.82 455.99 C 267.44 453.16 270.35 449.69 273.40 446.28 L 274.98 445.59 C 275.72 445.97 276.45 446.36 277.17 446.78 C 276.62 449.15 276.34 451.73 274.69 453.64 C 272.38 456.26 269.13 458.24 266.44 460.48 C 265.76 461.46 265.21 462.57 264.65 463.63 C 265.71 464.16 266.78 464.68 267.85 465.21 C 268.55 464.68 269.25 464.16 269.95 463.65 C 271.04 462.93 272.14 462.22 273.24 461.53 C 273.76 461.99 274.29 462.45 274.82 462.89 C 275.79 464.33 275.96 466.03 277.99 466.23 C 280.84 466.40 280.82 463.71 281.70 461.74 C 286.36 459.64 289.06 455.45 294.06 453.95 C 294.51 454.41 294.96 454.88 295.39 455.36 L 296.18 457.01 C 292.31 459.23 288.28 461.23 284.63 463.73 C 290.03 463.78 294.54 461.74 299.01 458.94 L 300.03 458.43 C 304.05 458.64 307.07 460.81 310.85 461.64 C 313.36 460.34 315.41 458.28 317.92 456.94 C 318.97 456.18 320.53 455.71 320.87 454.38 C 318.32 452.89 315.60 452.51 312.76 451.91 C 310.78 451.48 308.90 450.78 306.97 450.17 C 308.17 446.70 309.11 443.53 308.54 439.81 C 304.80 440.82 301.42 442.49 298.05 444.35 C 298.22 442.96 298.41 441.58 298.69 440.21 C 302.24 437.17 306.16 435.73 306.53 430.45 C 305.00 430.79 303.46 431.14 301.94 431.52 C 301.76 430.77 301.59 430.02 301.42 429.27 C 301.08 427.44 300.53 425.87 298.32 426.29 C 296.54 427.40 296.36 430.03 295.90 431.88 Z" id="p2" />
<path d="M 263.27 38.76 C 265.10 40.30 265.09 42.61 265.58 44.80 C 264.27 43.36 263.23 41.83 262.26 40.15 C 259.89 39.95 257.88 39.36 255.74 40.78 C 254.93 42.42 254.93 44.60 255.63 46.27 C 258.80 48.19 262.83 48.69 264.94 52.02 C 268.08 56.24 264.33 63.68 258.98 63.38 C 254.76 62.91 251.60 58.97 252.52 54.72 C 254.83 57.47 255.54 61.60 260.01 60.82 C 263.19 60.68 263.57 58.23 264.99 55.94 C 263.08 52.55 260.10 51.82 256.93 50.06 C 252.26 47.79 252.20 39.00 257.49 37.45 C 259.33 36.62 261.77 37.63 263.27 38.76 Z" id="p3" />
<path d="M 233.59 38.51 C 232.47 42.36 226.28 40.32 223.63 42.87 C 223.73 45.27 224.27 47.50 224.84 49.81 C 227.46 49.74 230.28 49.52 232.85 49.98 L 232.94 51.61 C 230.44 52.21 227.80 52.35 225.36 53.11 C 225.30 57.23 225.92 61.30 225.64 65.43 C 223.49 61.57 223.66 56.34 222.98 51.99 C 222.64 48.07 221.55 43.95 221.98 40.03 C 225.67 38.88 229.74 38.60 233.59 38.51 Z" id="p4" />
<path d="M 278.06 39.07 C 280.33 38.06 283.21 39.59 284.61 41.42 C 285.98 43.11 285.70 45.45 285.91 47.49 C 284.34 45.60 283.13 43.38 281.46 41.60 C 279.35 40.05 277.27 41.10 275.73 42.81 C 272.07 46.58 272.19 53.18 272.75 58.03 C 273.05 61.36 276.95 63.45 279.86 61.83 C 281.86 60.55 283.34 58.36 284.97 56.65 C 284.63 59.21 284.32 61.45 282.21 63.19 C 279.49 66.00 273.90 65.50 272.27 61.74 C 269.66 56.98 270.20 50.87 271.76 45.87 C 272.77 42.72 274.85 40.12 278.06 39.07 Z" id="p5" />
<path d="M 205.17 42.14 C 208.82 40.72 212.38 42.40 214.50 45.48 C 217.60 50.06 219.27 56.47 217.74 61.87 C 216.52 65.68 213.01 69.04 208.78 67.31 C 202.26 63.98 200.00 55.80 200.88 48.97 C 201.04 46.03 202.54 43.51 205.17 42.14 Z M 215.86 62.91 C 216.35 57.43 216.42 52.44 213.33 47.65 C 211.82 44.34 207.32 42.98 204.57 45.52 C 201.94 49.19 202.46 54.98 203.92 59.02 C 204.99 62.17 207.42 65.03 211.00 65.00 C 212.70 65.09 214.41 63.69 215.86 62.91 Z" id="p6" />
<path d="M 294.47 40.89 C 294.69 47.60 292.67 53.49 291.66 60.01 C 291.23 62.54 290.66 65.00 289.94 67.46 C 287.84 63.89 290.09 58.85 290.63 54.98 C 291.81 50.44 291.47 44.55 294.47 40.89 Z" id="p7" />
<path d="M 213.33 47.65 C 216.42 52.44 216.35 57.43 215.86 62.91 C 214.41 63.69 212.70 65.09 211.00 65.00 C 207.42 65.03 204.99 62.17 203.92 59.02 C 202.46 54.98 201.94 49.19 204.57 45.52 C 207.32 42.98 211.82 44.34 213.33 47.65 Z" id="p8" />
<path d="M 302.56 43.26 C 306.66 44.29 310.70 45.45 314.57 47.15 C 311.45 49.64 307.09 47.06 303.66 46.42 C 302.73 48.97 301.88 51.53 301.07 54.12 C 304.44 55.18 307.65 56.06 310.73 57.86 L 309.90 58.90 C 306.74 58.78 303.53 57.77 300.44 57.08 C 299.61 59.95 298.74 62.81 297.92 65.68 C 301.01 66.62 304.46 67.17 307.31 68.70 C 307.76 69.44 308.19 70.19 308.58 70.96 C 304.02 70.58 299.71 69.30 295.50 67.56 C 297.75 59.42 299.88 51.28 302.56 43.26 Z" id="p9" />
<path d="M 322.95 48.52 C 323.76 56.01 323.61 63.53 324.70 71.02 C 328.78 65.43 329.04 58.14 333.65 53.16 C 331.90 59.84 328.74 66.03 326.57 72.60 C 325.78 74.09 325.27 77.17 323.13 76.95 C 321.76 70.43 323.16 62.52 321.04 56.21 C 320.41 56.13 319.94 56.57 319.63 57.52 C 317.15 62.37 315.98 68.72 312.24 72.68 C 313.76 67.03 316.48 61.73 318.36 56.17 C 319.57 53.23 320.08 50.30 322.95 48.52 Z" id="p10" />
<path d="M 180.77 49.65 C 180.62 54.51 179.41 59.24 179.78 64.01 C 180.08 68.41 182.30 72.08 183.08 76.51 C 179.84 73.71 179.88 69.42 177.09 65.96 C 173.74 61.90 169.27 58.93 165.90 54.84 C 170.62 55.16 173.91 60.78 177.53 63.44 C 178.22 59.66 178.08 55.87 178.35 52.06 C 178.36 50.56 179.76 50.43 180.77 49.65 Z" id="p11" />
<path d="M 163.85 57.33 C 162.56 59.44 160.90 60.96 158.95 62.43 C 161.57 69.56 166.72 76.03 168.16 83.45 C 166.50 81.68 165.27 79.88 164.25 77.68 C 161.94 72.76 159.49 67.91 156.86 63.15 C 154.86 63.79 152.94 64.44 150.90 64.88 L 150.67 62.99 C 154.72 60.52 159.16 58.26 163.85 57.33 Z" id="p12" />
<path d="M 350.08 62.07 C 351.18 64.39 350.47 66.85 350.15 69.27 C 349.29 67.07 348.94 64.36 347.54 62.43 C 346.19 60.94 343.22 61.20 341.48 61.70 C 338.73 63.31 336.76 66.55 335.30 69.31 C 333.75 72.14 334.19 75.78 334.11 78.93 C 335.79 79.62 337.93 81.09 339.78 80.73 C 341.63 80.07 343.26 78.82 345.03 77.97 C 346.67 79.61 342.32 82.44 340.97 83.05 C 336.52 85.27 332.09 81.58 331.88 77.02 C 332.15 70.56 335.28 63.44 340.76 59.74 C 343.55 58.13 348.93 58.42 350.08 62.07 Z" id="p13" />
<path d="M 144.82 65.59 C 148.70 68.43 150.30 74.11 152.97 78.05 C 154.93 81.45 157.14 84.38 158.36 88.17 C 156.41 88.56 156.10 87.10 155.13 85.84 C 153.22 82.70 151.62 79.38 149.79 76.19 C 147.85 72.63 145.68 69.64 144.82 65.59 Z" id="p14" />
<path d="M 359.85 66.37 C 363.36 68.41 366.77 70.62 370.22 72.76 C 369.55 73.31 368.87 73.83 368.16 74.34 C 365.28 73.05 362.61 71.25 359.89 69.67 C 358.08 71.84 356.55 74.05 355.17 76.51 C 358.28 78.48 362.44 79.51 362.92 83.77 C 359.68 82.30 356.56 80.62 353.37 79.06 C 351.97 81.28 349.61 83.84 349.37 86.53 C 351.90 88.87 355.21 90.34 357.52 92.90 L 357.12 94.33 C 353.07 93.03 349.45 89.92 345.86 87.64 C 347.72 84.59 349.68 81.61 351.65 78.62 C 354.43 74.43 356.42 70.13 359.85 66.37 Z" id="p15" />
<path d="M 138.62 72.47 C 140.28 72.80 141.38 74.72 142.48 75.89 C 139.51 75.58 135.43 73.29 133.21 76.22 C 130.95 78.79 133.03 80.72 134.50 82.93 C 137.44 82.44 140.50 81.59 143.49 81.63 C 147.60 81.68 150.69 86.19 150.58 90.00 C 150.60 94.47 144.59 97.61 140.93 95.10 C 139.28 94.12 138.39 92.58 137.27 91.07 C 140.15 92.11 143.31 94.93 146.33 92.76 C 148.93 91.40 148.45 89.41 148.90 86.92 C 147.96 86.05 147.02 85.19 146.08 84.33 C 142.75 84.72 139.27 85.51 135.93 85.29 C 131.31 84.01 128.76 77.81 132.00 73.97 C 133.57 71.89 136.31 72.11 138.62 72.47 Z" id="p16" />
<path d="M 121.05 83.27 C 124.51 83.54 127.39 86.19 128.62 89.32 C 128.95 91.03 128.50 92.92 128.32 94.64 C 131.27 96.05 134.31 97.29 137.20 98.82 C 138.18 99.24 138.83 99.97 139.16 100.99 C 134.72 101.87 130.64 96.59 126.01 97.07 C 124.46 97.38 123.17 98.91 121.91 99.81 C 124.54 102.99 127.26 105.98 129.44 109.50 C 125.97 108.58 124.75 105.88 122.66 103.30 C 119.12 98.77 115.49 94.30 111.96 89.75 C 114.73 87.41 117.68 84.69 121.05 83.27 Z M 115.15 90.86 C 116.92 93.06 118.77 95.18 120.74 97.22 C 122.80 95.29 127.03 93.29 126.37 89.97 C 126.25 87.40 123.62 85.49 121.11 86.16 C 118.40 86.65 116.92 88.98 115.15 90.86 Z" id="p17" />
<path d="M 121.11 86.16 C 123.62 85.49 126.25 87.40 126.37 89.97 C 127.03 93.29 122.80 95.29 120.74 97.22 C 118.77 95.18 116.92 93.06 115.15 90.86 C 116.92 88.98 118.40 86.65 121.11 86.16 Z" id="p18" />
<path d="M 248.00 86.25 C 253.91 86.33 259.95 85.97 265.82 86.54 C 272.25 87.25 278.65 88.20 285.01 89.37 C 295.92 91.29 306.60 95.18 316.84 99.29 C 342.42 110.31 365.02 127.90 381.94 150.04 C 386.70 155.83 390.98 161.91 394.37 168.62 C 393.40 168.65 392.43 168.69 391.46 168.75 C 382.89 154.47 372.20 141.32 359.91 130.09 C 348.17 119.99 335.49 111.18 321.44 104.60 C 314.35 101.56 307.39 98.40 299.98 96.18 C 290.82 93.14 281.50 91.66 272.00 90.17 C 266.13 89.24 259.94 89.42 254.00 89.34 C 247.35 89.38 240.62 89.27 234.00 89.93 C 199.26 93.83 165.71 109.23 140.58 133.61 C 123.49 149.90 109.48 170.17 101.43 192.44 C 97.22 202.94 94.08 213.78 92.63 225.02 C 90.15 238.78 90.37 253.09 91.25 267.02 C 93.61 288.03 99.68 308.52 109.95 327.04 C 124.50 355.20 148.88 378.43 176.67 393.39 C 185.41 397.76 194.15 401.91 203.62 404.48 C 215.10 408.24 226.97 410.39 239.00 411.39 C 247.30 411.64 255.70 411.65 264.00 411.50 C 293.39 409.08 321.96 399.25 345.89 381.88 C 365.26 367.76 381.92 349.48 393.52 328.46 C 398.12 320.55 401.36 312.15 404.53 303.59 C 405.33 304.05 406.12 304.50 406.91 304.95 C 396.27 336.17 375.36 363.34 348.98 382.95 C 334.28 394.07 317.72 401.84 300.18 407.32 C 278.23 414.51 255.98 415.10 233.13 413.46 C 226.36 412.75 219.65 411.26 212.99 409.90 C 199.94 406.83 187.47 401.37 175.42 395.53 C 167.89 391.25 160.33 386.86 153.39 381.66 C 146.55 376.71 140.45 370.47 134.18 364.77 C 126.31 356.48 119.14 347.66 113.18 337.89 C 102.16 321.12 95.10 301.54 90.85 282.01 C 87.41 263.61 86.92 244.52 89.70 226.00 C 90.82 215.67 93.77 205.86 97.06 196.06 C 98.80 189.50 101.93 183.67 104.72 177.54 C 108.87 169.09 113.95 161.08 119.37 153.39 C 125.82 145.44 131.80 137.36 139.61 130.64 C 157.21 114.24 178.09 101.57 201.01 94.19 C 206.77 92.56 212.06 90.49 217.99 89.56 C 227.81 87.98 238.04 85.95 248.00 86.25 Z" id="p19" />
<path d="M 390.92 87.96 C 390.90 89.93 390.22 91.59 389.32 93.30 C 387.11 97.51 385.11 101.81 383.18 106.15 C 381.96 108.70 381.46 111.16 378.73 112.57 C 379.36 109.77 380.44 107.17 381.69 104.60 C 379.96 102.77 378.15 100.55 375.94 99.31 C 373.11 100.61 370.78 102.52 367.63 103.13 C 372.32 98.68 378.41 95.60 383.63 91.68 C 385.85 90.22 388.17 88.05 390.92 87.96 Z M 378.10 97.86 C 379.71 99.04 381.33 100.22 382.97 101.38 C 384.54 98.65 386.34 95.87 387.40 92.90 L 386.97 92.01 C 383.64 92.87 380.71 95.73 378.10 97.86 Z" id="p20" />
<path d="M 254.00 89.34 C 259.94 89.42 266.13 89.24 272.00 90.17 C 281.50 91.66 290.82 93.14 299.98 96.18 C 307.39 98.40 314.35 101.56 321.44 104.60 C 335.49 111.18 348.17 119.99 359.91 130.09 C 372.20 141.32 382.89 154.47 391.46 168.75 C 396.86 178.39 401.58 188.36 405.22 198.80 C 416.24 232.43 416.36 270.15 404.53 303.59 C 401.36 312.15 398.12 320.55 393.52 328.46 C 381.92 349.48 365.26 367.76 345.89 381.88 C 321.96 399.25 293.39 409.08 264.00 411.50 C 255.70 411.65 247.30 411.64 239.00 411.39 C 226.97 410.39 215.10 408.24 203.62 404.48 C 194.15 401.91 185.41 397.76 176.67 393.39 C 148.88 378.43 124.50 355.20 109.95 327.04 C 99.68 308.52 93.61 288.03 91.25 267.02 C 90.37 253.09 90.15 238.78 92.63 225.02 C 94.08 213.78 97.22 202.94 101.43 192.44 C 109.48 170.17 123.49 149.90 140.58 133.61 C 165.71 109.23 199.26 93.83 234.00 89.93 C 240.62 89.27 247.35 89.38 254.00 89.34 Z M 228.06 152.83 L 227.47 152.31 C 228.70 148.84 229.43 145.58 231.74 142.62 C 234.08 139.69 236.75 136.97 239.76 134.73 C 243.13 132.17 246.79 130.56 249.46 127.12 C 243.53 127.89 238.89 130.68 233.38 133.01 C 223.43 137.36 214.07 143.13 204.81 148.78 C 189.56 158.77 175.12 172.10 166.04 188.06 C 158.85 200.71 155.94 215.54 157.40 229.99 C 158.81 241.20 165.49 251.97 175.55 257.36 C 181.75 261.08 188.81 262.55 196.00 262.42 C 207.74 262.99 218.54 257.55 229.17 253.35 C 234.17 251.41 239.59 248.36 245.11 249.91 C 247.43 251.83 246.27 255.16 245.25 257.46 C 240.10 267.62 231.75 274.06 222.65 280.45 C 219.07 282.75 215.35 284.19 212.59 287.60 C 215.77 287.78 218.89 287.88 221.99 287.00 C 233.07 284.22 242.16 278.30 251.14 271.48 C 252.22 270.87 253.33 270.28 254.42 269.68 C 254.21 271.43 253.94 273.13 254.24 274.89 C 256.13 274.60 257.40 273.44 258.78 272.23 C 261.76 269.10 264.74 266.13 268.41 263.80 C 268.57 266.20 268.67 268.67 269.08 271.03 C 276.56 269.27 275.89 256.58 282.47 253.52 C 284.16 252.82 286.21 253.08 287.49 254.46 C 288.41 256.06 288.57 258.18 288.63 259.99 C 288.63 265.93 287.09 271.59 284.61 276.95 C 283.76 279.02 283.31 281.19 282.90 283.38 C 284.32 282.79 285.74 282.21 287.10 281.49 C 292.12 277.81 296.86 273.66 301.53 269.55 C 308.68 262.52 316.47 255.32 322.20 247.14 C 328.42 238.78 332.44 229.13 334.68 218.99 C 336.78 210.74 337.26 202.26 335.11 193.96 C 333.85 188.64 330.76 182.89 325.95 180.03 C 322.70 178.00 318.67 178.10 315.01 178.59 C 307.56 179.91 300.22 183.31 292.97 185.33 C 288.58 186.63 284.33 186.34 279.82 186.48 L 279.81 186.47 C 277.33 184.26 274.78 182.63 274.47 179.01 C 273.44 168.21 278.66 159.99 284.64 151.61 C 291.38 141.88 299.49 133.31 308.26 125.39 C 301.47 124.54 295.34 126.36 288.83 127.89 C 276.46 131.37 264.61 135.28 253.09 141.06 C 246.83 144.44 240.72 148.17 234.38 151.41 C 232.34 152.43 230.30 152.53 228.06 152.83 Z M 203.14 333.54 C 203.42 335.91 203.73 338.27 204.43 340.56 C 207.00 348.82 209.13 357.22 211.54 365.52 C 213.10 370.45 215.17 376.33 219.05 379.91 C 222.74 383.09 227.22 385.74 232.01 386.81 C 242.95 389.07 254.08 389.22 264.81 385.84 C 272.07 383.41 277.72 377.71 280.70 370.73 C 284.87 359.93 287.27 348.89 290.46 337.83 C 290.66 336.60 291.20 334.56 290.12 333.62 C 287.87 333.39 285.92 334.00 283.76 334.49 C 280.86 341.06 278.47 347.96 275.05 354.27 C 272.71 357.91 270.33 361.69 265.80 362.69 C 263.41 363.10 259.50 363.40 257.97 361.03 C 255.75 357.35 255.73 352.17 255.67 348.00 C 255.73 341.86 255.15 335.58 257.79 329.85 C 259.33 326.40 262.27 323.90 265.80 322.64 C 275.27 319.76 285.57 319.08 294.81 315.56 C 300.60 313.41 300.89 305.59 302.77 300.54 C 299.47 298.86 296.47 299.81 293.03 300.31 C 280.84 302.36 268.32 303.13 255.98 303.57 C 252.35 303.57 249.25 306.19 249.42 309.97 C 249.23 318.63 249.46 327.33 249.40 336.00 C 249.31 341.79 250.06 348.11 248.73 353.76 C 247.57 353.99 246.40 354.17 245.22 354.31 C 244.25 339.58 245.12 324.72 244.73 309.97 C 244.80 307.25 243.20 304.61 240.50 303.89 C 237.40 303.32 234.14 303.41 230.99 303.29 C 217.88 303.05 205.26 300.82 192.38 299.21 C 192.10 303.89 193.27 308.44 195.60 312.48 C 197.44 315.28 200.90 316.41 203.99 317.20 C 209.33 318.47 214.75 319.44 220.11 320.63 C 225.15 321.70 230.17 322.12 233.99 325.99 C 237.90 330.45 238.71 336.27 238.53 342.00 C 238.32 348.00 239.24 355.89 236.26 361.27 C 232.16 365.28 226.10 362.96 222.64 359.34 C 216.84 352.90 214.89 343.21 210.99 335.97 C 209.42 332.74 206.10 333.86 203.14 333.54 Z" id="p21" />
<path d="M 386.97 92.01 L 387.40 92.90 C 386.34 95.87 384.54 98.65 382.97 101.38 C 381.33 100.22 379.71 99.04 378.10 97.86 C 380.71 95.73 383.64 92.87 386.97 92.01 Z" id="p22" />
<path d="M 107.13 94.65 C 107.31 95.43 107.47 96.21 107.59 97.00 C 105.65 99.49 103.15 101.54 101.05 103.90 C 102.94 105.85 104.87 107.76 106.85 109.62 C 109.11 107.58 111.31 105.26 113.90 103.65 L 115.14 104.08 C 113.93 106.65 111.93 108.16 110.13 110.29 C 109.44 110.88 109.26 111.76 109.59 112.94 C 110.98 114.97 112.85 116.59 115.04 117.71 C 118.12 116.32 120.20 113.05 123.06 111.18 L 124.22 112.83 C 121.63 115.77 118.70 119.22 115.15 120.99 C 109.00 115.54 103.66 109.04 97.95 103.12 C 100.91 100.24 103.88 97.18 107.13 94.65 Z" id="p23" />
<path d="M 400.98 97.89 C 401.72 100.63 400.28 102.87 399.29 105.34 C 397.19 109.72 396.22 114.40 394.42 118.90 C 397.44 116.40 400.61 114.18 403.42 111.43 C 405.31 109.57 407.26 107.82 409.52 106.42 C 407.66 109.99 404.73 112.17 401.92 114.91 C 398.14 118.46 394.93 122.10 390.43 124.79 C 391.20 117.19 396.14 111.44 396.95 103.91 C 391.77 107.61 387.70 112.56 382.49 116.26 C 383.54 112.44 386.97 110.41 389.68 107.70 C 393.39 104.55 396.66 100.10 400.98 97.89 Z" id="p24" />
<path d="M 93.71 107.57 C 96.61 110.16 98.40 113.29 100.47 116.53 C 103.23 120.95 106.28 125.18 108.94 129.67 C 108.31 130.09 107.67 130.51 107.03 130.94 C 100.54 127.30 93.72 124.22 87.01 121.02 C 85.38 120.42 84.98 119.20 84.15 117.81 C 91.67 120.16 98.13 124.96 105.51 127.81 C 102.64 122.65 99.10 117.99 95.77 113.13 C 94.67 111.33 93.34 109.83 93.71 107.57 Z" id="p25" />
<path d="M 414.31 112.79 C 417.30 115.52 421.29 119.32 419.82 123.82 C 418.10 128.36 413.63 132.09 409.50 134.43 C 407.00 135.49 403.25 137.29 400.94 135.06 C 398.79 133.40 396.83 131.36 395.45 129.01 C 395.34 127.67 397.05 126.78 397.91 125.92 C 403.40 121.56 408.96 117.31 414.31 112.79 Z M 398.14 128.13 C 399.91 130.80 401.29 133.86 405.00 133.83 C 411.26 132.78 415.35 128.10 418.47 122.92 C 417.29 120.33 415.85 118.01 414.15 115.73 C 408.56 119.42 403.37 123.90 398.14 128.13 Z" id="p26" />
<path d="M 414.15 115.73 C 415.85 118.01 417.29 120.33 418.47 122.92 C 415.35 128.10 411.26 132.78 405.00 133.83 C 401.29 133.86 399.91 130.80 398.14 128.13 C 403.37 123.90 408.56 119.42 414.15 115.73 Z" id="p27" />
<path d="M 79.61 124.73 C 84.46 125.23 88.54 129.84 92.57 132.42 C 95.25 134.72 99.85 136.61 101.10 140.05 C 98.18 139.57 96.39 137.63 94.06 135.96 C 89.30 132.28 83.82 128.97 79.61 124.73 Z" id="p28" />
<path d="M 308.26 125.39 C 299.49 133.31 291.38 141.88 284.64 151.61 C 278.66 159.99 273.44 168.21 274.47 179.01 C 274.78 182.63 277.33 184.26 279.81 186.47 C 276.63 185.54 274.15 184.38 272.87 181.12 C 271.84 177.68 271.85 173.84 271.71 170.27 C 271.50 167.96 273.79 165.84 274.93 163.97 C 276.89 161.32 277.40 158.38 278.74 155.46 C 279.85 153.77 281.70 152.58 282.95 150.98 C 283.80 149.27 284.12 147.26 284.61 145.42 C 285.64 144.89 286.67 144.37 287.70 143.85 C 290.73 138.26 296.02 136.04 297.49 129.83 C 294.44 129.75 291.28 129.57 288.31 130.37 C 285.11 131.29 282.59 133.08 279.61 134.36 C 275.59 136.05 271.47 135.66 267.52 137.65 C 264.76 139.00 261.98 140.23 259.02 141.11 C 253.56 142.60 249.55 146.37 244.28 148.41 C 241.72 149.37 240.33 151.32 238.71 153.38 C 235.28 153.56 230.53 156.08 228.06 152.83 C 230.30 152.53 232.34 152.43 234.38 151.41 C 240.72 148.17 246.83 144.44 253.09 141.06 C 264.61 135.28 276.46 131.37 288.83 127.89 C 295.34 126.36 301.47 124.54 308.26 125.39 Z" id="p29" />
<path d="M 249.46 127.12 C 246.79 130.56 243.13 132.17 239.76 134.73 C 236.75 136.97 234.08 139.69 231.74 142.62 C 229.43 145.58 228.70 148.84 227.47 152.31 C 225.55 145.95 230.78 140.28 234.93 136.16 C 233.18 136.29 231.36 136.26 229.65 136.68 C 228.20 137.81 227.02 139.30 225.56 140.41 C 222.66 141.59 219.74 142.11 217.19 144.07 C 213.25 147.09 208.78 149.08 204.58 151.66 C 198.03 156.21 191.99 161.77 185.95 166.95 C 183.81 168.79 181.90 170.83 180.17 173.05 C 175.38 179.26 170.07 184.45 166.93 191.80 C 164.22 198.67 160.83 204.45 160.42 212.02 C 160.12 222.31 158.36 231.22 163.22 240.84 C 165.66 244.27 168.03 247.97 170.98 250.98 C 175.08 254.38 179.82 257.75 185.09 258.92 C 193.32 260.88 202.16 260.71 210.26 258.21 C 213.73 257.14 216.77 255.42 220.11 254.05 C 223.48 252.64 226.87 251.77 230.14 250.09 C 233.45 248.47 236.14 246.56 240.00 246.54 C 243.21 246.27 247.61 247.96 249.03 251.01 C 249.07 254.46 247.69 258.04 246.04 261.03 C 244.02 264.59 241.87 268.02 238.71 270.68 C 233.81 274.75 229.39 279.24 224.01 282.72 C 230.03 280.92 236.51 279.41 241.55 275.46 C 244.65 273.05 247.54 270.55 251.17 268.94 L 251.14 271.48 C 242.16 278.30 233.07 284.22 221.99 287.00 C 218.89 287.88 215.77 287.78 212.59 287.60 C 215.35 284.19 219.07 282.75 222.65 280.45 C 231.75 274.06 240.10 267.62 245.25 257.46 C 246.27 255.16 247.43 251.83 245.11 249.91 C 239.59 248.36 234.17 251.41 229.17 253.35 C 218.54 257.55 207.74 262.99 196.00 262.42 C 188.81 262.55 181.75 261.08 175.55 257.36 C 165.49 251.97 158.81 241.20 157.40 229.99 C 155.94 215.54 158.85 200.71 166.04 188.06 C 175.12 172.10 189.56 158.77 204.81 148.78 C 214.07 143.13 223.43 137.36 233.38 133.01 C 238.89 130.68 243.53 127.89 249.46 127.12 Z" id="p30" />
<path d="M 288.31 130.37 C 291.28 129.57 294.44 129.75 297.49 129.83 C 296.02 136.04 290.73 138.26 287.70 143.85 C 286.67 144.37 285.64 144.89 284.61 145.42 C 284.12 147.26 283.80 149.27 282.95 150.98 C 281.70 152.58 279.85 153.77 278.74 155.46 C 277.40 158.38 276.89 161.32 274.93 163.97 C 273.79 165.84 271.50 167.96 271.71 170.27 C 271.85 173.84 271.84 177.68 272.87 181.12 C 274.15 184.38 276.63 185.54 279.81 186.47 L 279.82 186.48 C 282.55 189.00 285.60 188.37 289.01 188.29 C 298.82 187.96 307.81 181.18 318.00 180.77 C 321.79 180.65 325.52 182.06 327.91 185.07 C 331.82 189.47 332.62 195.39 333.67 200.99 C 335.03 208.73 333.42 215.88 331.39 223.31 C 330.00 228.17 327.07 232.40 325.22 237.16 C 323.27 242.40 319.48 246.08 316.84 250.92 C 314.56 255.17 310.79 257.19 307.76 260.82 C 304.61 264.82 299.93 266.76 296.71 270.70 C 293.91 273.98 291.40 275.88 287.28 277.27 C 288.82 270.90 291.26 265.64 291.17 258.97 C 291.03 254.44 287.38 250.31 282.67 250.51 C 280.66 250.61 279.79 252.25 278.69 253.68 C 276.14 257.52 273.90 261.57 271.61 265.57 C 269.54 264.22 268.08 262.23 265.35 263.46 C 262.14 265.21 259.63 268.44 256.99 270.95 C 255.24 269.61 253.32 269.23 251.17 268.94 C 247.54 270.55 244.65 273.05 241.55 275.46 C 236.51 279.41 230.03 280.92 224.01 282.72 C 229.39 279.24 233.81 274.75 238.71 270.68 C 241.87 268.02 244.02 264.59 246.04 261.03 C 247.69 258.04 249.07 254.46 249.03 251.01 C 247.61 247.96 243.21 246.27 240.00 246.54 C 236.14 246.56 233.45 248.47 230.14 250.09 C 226.87 251.77 223.48 252.64 220.11 254.05 C 216.77 255.42 213.73 257.14 210.26 258.21 C 202.16 260.71 193.32 260.88 185.09 258.92 C 179.82 257.75 175.08 254.38 170.98 250.98 C 168.03 247.97 165.66 244.27 163.22 240.84 C 158.36 231.22 160.12 222.31 160.42 212.02 C 160.83 204.45 164.22 198.67 166.93 191.80 C 170.07 184.45 175.38 179.26 180.17 173.05 C 181.90 170.83 183.81 168.79 185.95 166.95 C 191.99 161.77 198.03 156.21 204.58 151.66 C 208.78 149.08 213.25 147.09 217.19 144.07 C 219.74 142.11 222.66 141.59 225.56 140.41 C 227.02 139.30 228.20 137.81 229.65 136.68 C 231.36 136.26 233.18 136.29 234.93 136.16 C 230.78 140.28 225.55 145.95 227.47 152.31 L 228.06 152.83 C 230.53 156.08 235.28 153.56 238.71 153.38 C 240.33 151.32 241.72 149.37 244.28 148.41 C 249.55 146.37 253.56 142.60 259.02 141.11 C 261.98 140.23 264.76 139.00 267.52 137.65 C 271.47 135.66 275.59 136.05 279.61 134.36 C 282.59 133.08 285.11 131.29 288.31 130.37 Z" id="p31" />
<path d="M 75.65 131.60 C 78.64 132.36 80.68 134.24 83.17 135.88 C 87.91 139.14 93.06 141.30 97.34 145.25 C 94.35 145.91 91.96 145.95 89.00 145.21 C 84.42 144.10 79.87 144.27 75.20 144.40 C 78.74 147.05 82.29 149.64 86.09 151.91 C 87.87 152.95 89.15 154.29 90.33 155.96 C 85.13 153.84 81.22 150.26 76.36 147.58 C 73.28 145.72 70.22 144.63 68.49 141.21 C 76.13 140.89 83.14 142.70 90.77 143.38 C 87.62 140.75 84.43 138.21 80.90 136.10 C 78.87 134.74 76.73 133.93 75.65 131.60 Z" id="p32" />
<path d="M 432.79 139.80 C 433.95 140.13 434.78 140.76 435.29 141.66 C 437.35 144.92 439.25 148.29 441.05 151.70 C 437.96 151.88 437.35 149.85 435.64 147.81 C 432.28 149.31 428.98 150.90 425.86 152.86 C 422.18 155.06 419.15 157.58 414.73 158.15 C 420.68 153.35 427.98 150.65 434.12 146.03 C 433.49 143.94 432.69 142.01 432.79 139.80 Z" id="p33" />
<path d="M 63.70 149.17 C 68.99 150.72 73.90 153.82 78.86 156.23 C 81.99 157.85 85.29 160.09 85.35 164.01 C 85.38 166.76 83.50 168.07 81.89 169.97 C 74.84 170.39 70.18 166.67 64.06 163.97 C 61.84 162.97 60.16 161.78 58.52 159.98 C 64.77 161.14 70.01 165.88 76.15 167.58 C 77.86 167.90 80.36 168.25 81.52 166.59 C 82.80 164.94 83.71 161.75 81.73 160.34 C 78.80 157.52 74.48 155.96 70.88 154.13 C 68.44 152.87 64.99 151.75 63.70 149.17 Z" id="p34" />
<path d="M 443.15 157.17 C 445.96 160.51 447.43 165.21 447.99 169.49 C 444.48 167.04 444.00 163.48 441.78 160.10 C 439.55 160.19 435.22 161.18 435.14 164.01 C 435.89 167.09 437.17 169.98 437.67 173.13 C 434.70 170.75 433.61 167.57 431.98 164.29 C 429.25 165.26 426.25 166.16 423.96 167.99 C 424.44 170.02 425.31 171.97 426.06 173.93 C 426.65 175.94 427.94 177.38 426.18 179.26 C 424.01 175.38 422.19 171.38 420.67 167.20 C 428.06 163.66 435.52 160.13 443.15 157.17 Z" id="p35" />
<path d="M 394.37 168.62 C 399.93 177.45 404.03 186.91 407.28 196.82 C 410.18 203.96 411.55 211.33 413.25 218.81 C 415.88 230.79 416.31 242.79 416.18 255.00 C 415.81 272.07 412.67 288.89 406.91 304.95 C 406.12 304.50 405.33 304.05 404.53 303.59 C 416.36 270.15 416.24 232.43 405.22 198.80 C 401.58 188.36 396.86 178.39 391.46 168.75 C 392.43 168.69 393.40 168.65 394.37 168.62 Z" id="p36" />
<path d="M 449.04 176.75 C 452.65 177.68 453.67 180.97 455.20 183.92 C 453.48 186.97 452.24 189.35 448.61 190.36 C 449.70 188.22 451.16 186.22 452.05 183.99 C 451.77 182.66 451.30 181.34 450.87 180.04 C 445.21 178.09 439.32 178.97 434.44 182.40 C 432.43 184.17 430.39 186.45 431.64 189.30 C 432.82 192.80 436.81 191.74 439.68 192.35 C 438.78 193.61 438.86 194.83 436.99 194.68 C 433.60 194.57 429.58 192.72 428.98 189.01 C 427.96 185.57 431.11 182.49 433.62 180.66 C 437.93 177.90 443.90 175.56 449.04 176.75 Z" id="p37" />
<path d="M 315.01 178.59 C 318.67 178.10 322.70 178.00 325.95 180.03 C 330.76 182.89 333.85 188.64 335.11 193.96 C 337.26 202.26 336.78 210.74 334.68 218.99 C 332.44 229.13 328.42 238.78 322.20 247.14 C 316.47 255.32 308.68 262.52 301.53 269.55 C 296.86 273.66 292.12 277.81 287.10 281.49 C 286.38 280.98 285.66 280.46 284.94 279.94 C 284.83 278.94 284.72 277.95 284.61 276.95 C 287.09 271.59 288.63 265.93 288.63 259.99 C 288.57 258.18 288.41 256.06 287.49 254.46 C 286.21 253.08 284.16 252.82 282.47 253.52 C 275.89 256.58 276.56 269.27 269.08 271.03 C 268.67 268.67 268.57 266.20 268.41 263.80 C 264.74 266.13 261.76 269.10 258.78 272.23 L 256.99 270.95 C 259.63 268.44 262.14 265.21 265.35 263.46 C 268.08 262.23 269.54 264.22 271.61 265.57 C 273.90 261.57 276.14 257.52 278.69 253.68 C 279.79 252.25 280.66 250.61 282.67 250.51 C 287.38 250.31 291.03 254.44 291.17 258.97 C 291.26 265.64 288.82 270.90 287.28 277.27 C 291.40 275.88 293.91 273.98 296.71 270.70 C 299.93 266.76 304.61 264.82 307.76 260.82 C 310.79 257.19 314.56 255.17 316.84 250.92 C 319.48 246.08 323.27 242.40 325.22 237.16 C 327.07 232.40 330.00 228.17 331.39 223.31 C 333.42 215.88 335.03 208.73 333.67 200.99 C 332.62 195.39 331.82 189.47 327.91 185.07 C 325.52 182.06 321.79 180.65 318.00 180.77 C 307.81 181.18 298.82 187.96 289.01 188.29 C 285.60 188.37 282.55 189.00 279.82 186.48 C 284.33 186.34 288.58 186.63 292.97 185.33 C 300.22 183.31 307.56 179.91 315.01 178.59 Z" id="p38" />
<path d="M 50.72 182.38 C 53.85 182.83 56.89 184.18 59.96 184.98 C 64.68 186.41 70.00 186.90 74.38 189.02 C 74.02 190.18 73.22 190.81 72.00 190.89 C 65.60 192.18 59.20 192.98 52.91 194.83 C 56.74 196.19 60.56 197.54 64.50 198.55 C 67.14 199.39 69.58 199.47 71.38 201.84 C 66.30 201.14 61.90 199.38 56.93 198.11 C 54.30 197.38 51.57 196.91 48.99 196.01 C 47.48 195.67 47.28 194.64 46.58 193.46 C 53.59 192.21 60.52 191.27 67.44 189.45 C 61.70 186.39 55.74 185.81 49.70 183.40 L 50.72 182.38 Z" id="p39" />
<path d="M 458.74 195.21 C 455.80 198.36 451.30 197.44 448.25 199.76 C 448.58 202.92 449.53 205.79 450.50 208.79 C 454.12 207.72 457.65 206.88 461.46 207.11 C 456.96 209.74 452.39 209.75 447.46 211.13 C 443.46 212.24 439.49 213.23 435.31 213.28 C 438.28 210.69 443.01 210.48 446.78 209.49 C 446.69 206.26 446.40 203.14 445.77 199.97 C 441.61 200.36 437.57 201.34 433.44 201.94 C 434.56 200.62 435.17 199.77 436.98 199.58 C 444.49 198.26 451.20 195.80 458.74 195.21 Z" id="p40" />
<path d="M 52.46 203.48 C 55.05 204.43 56.17 206.47 57.54 208.67 C 61.63 207.06 65.79 205.74 70.17 205.20 C 69.68 205.95 69.15 206.66 68.58 207.34 C 65.09 208.94 60.37 209.05 57.29 211.33 C 56.77 212.92 56.56 214.63 56.26 216.26 C 59.76 217.23 64.99 217.00 67.47 219.86 C 59.06 218.86 50.80 216.70 42.36 215.84 C 42.65 212.28 42.66 207.74 44.54 204.59 C 46.88 202.96 49.76 202.23 52.46 203.48 Z M 44.94 214.21 C 47.73 214.72 50.52 215.19 53.31 215.64 C 53.83 212.96 54.84 209.69 54.07 207.02 C 53.16 204.66 49.28 204.98 47.30 205.36 C 44.86 207.40 45.29 211.34 44.94 214.21 Z" id="p41" />
<path d="M 47.30 205.36 C 49.28 204.98 53.16 204.66 54.07 207.02 C 54.84 209.69 53.83 212.96 53.31 215.64 C 50.52 215.19 47.73 214.72 44.94 214.21 C 45.29 211.34 44.86 207.40 47.30 205.36 Z" id="p42" />
<path d="M 463.41 216.53 C 457.88 221.50 450.85 223.74 445.59 228.98 C 450.41 229.10 455.07 228.36 459.82 227.70 C 461.48 227.41 462.89 227.96 464.43 228.51 C 456.00 230.67 447.02 231.08 438.37 231.88 C 439.66 229.88 441.01 228.26 443.14 227.13 C 447.73 224.51 452.26 221.94 456.34 218.56 C 449.89 218.07 443.75 220.10 437.33 219.74 C 441.25 217.54 446.58 217.66 450.98 216.94 C 454.95 216.64 459.67 215.00 463.41 216.53 Z" id="p43" />
<path d="M 43.25 221.74 C 43.26 225.29 42.80 228.86 42.58 232.40 C 45.29 232.99 47.88 233.25 50.66 233.24 C 51.01 230.27 51.43 227.31 51.84 224.34 C 52.55 224.31 53.26 224.27 53.98 224.23 C 53.96 227.36 53.71 230.44 53.30 233.55 C 56.29 234.34 59.12 234.79 62.21 234.95 C 63.08 231.54 62.41 225.52 65.71 223.45 C 65.95 228.02 65.43 232.49 64.74 236.99 C 56.36 235.95 47.93 235.42 39.58 234.16 C 39.90 230.66 40.12 227.16 40.49 223.67 C 41.25 222.32 42.17 221.68 43.25 221.74 Z" id="p44" />
<path d="M 449.19 236.22 C 453.90 235.73 460.78 236.03 464.14 239.88 C 466.91 243.15 465.39 247.85 461.96 249.92 C 455.63 253.93 447.62 253.74 441.45 249.54 C 438.37 246.90 438.70 242.18 441.39 239.40 C 443.33 237.44 446.55 236.65 449.19 236.22 Z M 441.18 243.11 C 441.98 245.10 442.52 248.28 444.51 249.40 C 447.40 250.57 450.93 250.49 454.01 250.36 C 457.00 250.12 460.36 249.66 462.18 246.96 C 463.03 244.81 463.08 241.42 461.06 239.89 C 457.46 237.46 452.11 237.62 447.97 238.09 C 445.12 238.29 443.05 241.23 441.18 243.11 Z" id="p45" />
<path d="M 447.97 238.09 C 452.11 237.62 457.46 237.46 461.06 239.89 C 463.08 241.42 463.03 244.81 462.18 246.96 C 460.36 249.66 457.00 250.12 454.01 250.36 C 450.93 250.49 447.40 250.57 444.51 249.40 C 442.52 248.28 441.98 245.10 441.18 243.11 C 443.05 241.23 445.12 238.29 447.97 238.09 Z" id="p46" />
<path d="M 44.00 241.36 C 51.42 241.55 58.29 241.00 65.58 242.79 C 61.63 244.40 56.76 243.51 52.52 243.94 C 52.39 247.05 52.24 250.16 52.09 253.28 C 56.12 253.82 61.25 252.88 64.77 255.05 C 59.80 255.55 55.01 255.16 50.00 255.22 C 45.84 255.11 42.08 255.57 38.32 253.44 C 42.07 253.14 45.81 253.30 49.57 253.22 C 49.64 250.29 50.11 247.21 49.69 244.30 C 49.34 243.58 48.77 243.23 47.98 243.25 C 44.95 242.94 41.90 242.93 38.88 242.48 C 40.37 240.93 42.03 241.48 44.00 241.36 Z" id="p47" />
<path d="M 448.00 257.37 C 453.56 258.00 459.12 258.43 464.70 258.80 C 464.68 259.30 464.66 259.80 464.63 260.29 C 457.06 260.12 449.62 258.85 442.01 259.18 C 441.80 261.93 441.68 264.69 441.59 267.44 C 440.81 267.46 440.03 267.48 439.26 267.49 C 439.27 264.26 439.11 260.87 439.68 257.67 C 442.18 256.67 445.38 257.19 448.00 257.37 Z" id="p48" />
<path d="M 39.70 261.58 L 41.52 260.68 C 41.91 262.65 42.30 264.63 42.69 266.61 C 47.19 266.38 51.69 266.08 56.16 265.56 C 59.53 265.28 62.55 264.60 65.67 266.28 C 58.10 268.00 50.29 267.30 42.63 268.67 C 42.65 270.66 42.67 272.65 42.68 274.64 C 41.93 274.64 41.19 274.65 40.45 274.65 C 40.18 270.36 39.25 265.87 39.70 261.58 Z" id="p49" />
<path d="M 251.17 268.94 C 253.32 269.23 255.24 269.61 256.99 270.95 L 258.78 272.23 C 257.40 273.44 256.13 274.60 254.24 274.89 C 253.94 273.13 254.21 271.43 254.42 269.68 C 253.33 270.28 252.22 270.87 251.14 271.48 L 251.17 268.94 Z" id="p50" />
<path d="M 445.18 272.16 C 451.10 270.96 459.53 272.66 462.66 278.37 C 464.92 281.47 462.21 285.87 459.30 287.35 C 453.52 290.58 446.64 288.72 441.07 286.00 C 437.13 284.00 436.22 278.26 439.05 274.98 C 440.37 273.12 443.08 272.63 445.18 272.16 Z M 443.43 274.49 C 439.46 275.77 438.37 281.85 441.93 284.08 C 446.09 287.52 451.53 286.82 456.54 286.19 C 460.65 284.89 462.29 280.08 459.03 276.97 C 454.84 273.87 448.34 272.59 443.43 274.49 Z" id="p51" />
<path d="M 443.43 274.49 C 448.34 272.59 454.84 273.87 459.03 276.97 C 462.29 280.08 460.65 284.89 456.54 286.19 C 451.53 286.82 446.09 287.52 441.93 284.08 C 438.37 281.85 439.46 275.77 443.43 274.49 Z" id="p52" />
<path d="M 284.61 276.95 C 284.72 277.95 284.83 278.94 284.94 279.94 C 285.66 280.46 286.38 280.98 287.10 281.49 C 285.74 282.21 284.32 282.79 282.90 283.38 C 283.31 281.19 283.76 279.02 284.61 276.95 Z" id="p53" />
<path d="M 53.50 278.69 C 56.70 278.25 60.80 277.04 63.89 278.26 C 67.56 279.43 69.01 284.69 66.61 287.62 C 64.91 289.86 61.47 290.75 58.85 291.37 C 53.65 292.33 48.39 293.75 43.20 293.67 C 49.41 290.12 57.86 291.63 64.36 287.37 C 65.51 286.55 65.33 284.15 65.47 282.86 C 64.54 281.58 63.38 280.52 62.26 279.40 C 54.91 279.50 48.03 282.00 40.70 281.73 C 44.86 279.89 49.08 279.51 53.50 278.69 Z" id="p54" />
<path d="M 454.18 296.82 C 457.70 298.91 459.88 303.85 457.55 307.59 C 455.56 310.77 451.97 311.11 448.64 310.12 C 450.39 309.51 452.15 308.96 453.93 308.46 C 455.19 306.72 456.18 305.27 455.91 302.99 C 456.07 300.45 453.52 298.62 451.62 297.41 C 448.23 295.54 443.36 294.68 439.59 295.52 C 435.25 296.65 434.19 301.91 436.60 305.34 C 438.06 305.93 439.63 306.29 441.15 306.72 C 441.73 305.09 442.31 303.46 442.89 301.83 C 443.65 302.23 444.35 302.69 445.00 303.20 C 444.77 305.18 444.20 307.19 443.71 309.13 C 441.47 308.79 439.29 308.49 437.10 307.82 C 431.08 306.64 431.49 295.67 437.16 294.19 C 443.17 291.49 448.84 293.84 454.18 296.82 Z" id="p55" />
<path d="M 58.44 296.50 C 61.53 295.97 65.01 295.86 68.00 296.90 C 71.90 298.63 73.35 303.26 71.18 306.97 C 67.24 312.74 59.60 314.71 52.98 313.95 C 49.34 313.03 45.65 310.19 46.68 305.96 C 47.47 300.83 53.88 297.52 58.44 296.50 Z M 58.50 298.68 C 54.98 299.63 50.50 301.32 49.19 305.09 C 48.57 308.37 50.21 310.71 53.33 311.63 C 56.71 312.36 60.59 311.43 63.83 310.41 C 67.14 309.33 70.60 305.87 69.81 302.12 C 67.60 298.06 62.60 297.40 58.50 298.68 Z" id="p56" />
<path d="M 58.50 298.68 C 62.60 297.40 67.60 298.06 69.81 302.12 C 70.60 305.87 67.14 309.33 63.83 310.41 C 60.59 311.43 56.71 312.36 53.33 311.63 C 50.21 310.71 48.57 308.37 49.19 305.09 C 50.50 301.32 54.98 299.63 58.50 298.68 Z" id="p57" />
<path d="M 192.38 299.21 C 205.26 300.82 217.88 303.05 230.99 303.29 C 234.14 303.41 237.40 303.32 240.50 303.89 C 243.20 304.61 244.80 307.25 244.73 309.97 C 245.12 324.72 244.25 339.58 245.22 354.31 C 246.40 354.17 247.57 353.99 248.73 353.76 C 250.06 348.11 249.31 341.79 249.40 336.00 C 249.46 327.33 249.23 318.63 249.42 309.97 C 249.25 306.19 252.35 303.57 255.98 303.57 C 268.32 303.13 280.84 302.36 293.03 300.31 C 296.47 299.81 299.47 298.86 302.77 300.54 C 300.89 305.59 300.60 313.41 294.81 315.56 C 285.57 319.08 275.27 319.76 265.80 322.64 C 262.27 323.90 259.33 326.40 257.79 329.85 C 255.15 335.58 255.73 341.86 255.67 348.00 C 255.73 352.17 255.75 357.35 257.97 361.03 C 259.50 363.40 263.41 363.10 265.80 362.69 C 270.33 361.69 272.71 357.91 275.05 354.27 C 278.47 347.96 280.86 341.06 283.76 334.49 C 285.92 334.00 287.87 333.39 290.12 333.62 C 291.20 334.56 290.66 336.60 290.46 337.83 C 287.27 348.89 284.87 359.93 280.70 370.73 C 277.72 377.71 272.07 383.41 264.81 385.84 C 254.08 389.22 242.95 389.07 232.01 386.81 C 227.22 385.74 222.74 383.09 219.05 379.91 C 215.17 376.33 213.10 370.45 211.54 365.52 C 209.13 357.22 207.00 348.82 204.43 340.56 C 203.73 338.27 203.42 335.91 203.14 333.54 C 206.10 333.86 209.42 332.74 210.99 335.97 C 214.89 343.21 216.84 352.90 222.64 359.34 C 226.10 362.96 232.16 365.28 236.26 361.27 C 239.24 355.89 238.32 348.00 238.53 342.00 C 238.71 336.27 237.90 330.45 233.99 325.99 C 230.17 322.12 225.15 321.70 220.11 320.63 C 214.75 319.44 209.33 318.47 203.99 317.20 C 200.90 316.41 197.44 315.28 195.60 312.48 C 193.27 308.44 192.10 303.89 192.38 299.21 Z M 195.42 302.49 C 195.40 304.65 194.81 307.82 196.36 309.55 C 199.21 312.96 203.69 315.13 208.01 315.94 C 213.98 317.08 220.02 317.90 226.00 318.99 C 229.97 319.59 233.47 321.94 235.97 325.01 C 238.13 328.28 239.36 332.16 241.23 335.61 C 243.41 330.19 242.14 325.42 242.52 319.69 C 242.83 314.92 242.33 311.01 240.99 306.43 C 231.85 306.06 222.75 305.65 213.65 304.66 C 207.41 304.47 201.70 302.25 195.42 302.49 Z M 290.15 303.31 C 286.11 304.30 282.17 304.92 278.00 305.02 C 270.92 305.27 264.02 306.60 256.92 306.38 C 255.10 306.57 253.05 305.92 252.52 308.25 C 251.26 314.27 252.38 320.77 251.80 326.98 C 251.43 329.70 252.16 332.00 253.19 334.50 C 255.30 331.18 256.22 326.70 258.70 323.77 C 267.78 318.57 277.84 317.85 287.90 315.57 C 291.36 314.86 294.54 312.37 297.09 310.02 C 298.99 308.49 298.67 305.06 298.94 302.86 C 296.02 302.87 293.07 303.14 290.15 303.31 Z M 286.20 343.07 C 285.16 342.73 284.11 342.39 283.06 342.05 C 279.91 347.95 280.64 353.72 275.96 357.98 C 272.79 361.06 270.89 364.67 266.03 364.99 C 262.82 365.25 258.13 366.16 256.17 362.84 C 252.98 358.25 253.59 353.67 253.43 348.41 C 252.45 350.45 251.69 352.62 250.55 354.58 C 248.20 357.12 244.19 356.18 243.06 352.96 C 241.38 347.53 243.78 342.22 241.46 336.76 C 239.39 344.54 241.82 351.68 239.54 359.45 C 238.39 362.56 236.69 365.23 233.02 365.33 C 227.22 366.22 222.79 362.88 219.01 358.96 C 216.00 355.44 215.43 349.87 213.35 345.72 C 211.80 342.71 210.44 339.16 208.07 336.72 L 206.09 337.11 C 206.20 341.87 208.93 346.35 209.86 351.08 C 211.18 357.48 214.01 363.31 215.63 369.62 C 217.23 375.31 222.11 379.11 226.82 382.23 C 229.30 383.94 232.05 384.33 234.96 384.77 C 239.66 385.44 243.95 386.75 248.65 386.47 C 253.79 386.13 258.99 385.23 263.92 383.72 C 268.37 382.44 271.90 379.23 274.95 375.89 C 277.88 372.67 278.90 367.64 280.63 363.63 C 283.37 357.03 285.47 350.21 286.20 343.07 Z" id="p58" />
<path d="M 213.65 304.66 C 222.75 305.65 231.85 306.06 240.99 306.43 C 242.33 311.01 242.83 314.92 242.52 319.69 C 242.14 325.42 243.41 330.19 241.23 335.61 C 239.36 332.16 238.13 328.28 235.97 325.01 C 233.47 321.94 229.97 319.59 226.00 318.99 C 220.02 317.90 213.98 317.08 208.01 315.94 C 203.69 315.13 199.21 312.96 196.36 309.55 C 194.81 307.82 195.40 304.65 195.42 302.49 C 201.70 302.25 207.41 304.47 213.65 304.66 Z" id="p59" />
<path d="M 298.94 302.86 C 298.67 305.06 298.99 308.49 297.09 310.02 C 294.54 312.37 291.36 314.86 287.90 315.57 C 277.84 317.85 267.78 318.57 258.70 323.77 C 256.22 326.70 255.30 331.18 253.19 334.50 C 252.16 332.00 251.43 329.70 251.80 326.98 C 252.38 320.77 251.26 314.27 252.52 308.25 C 253.05 305.92 255.10 306.57 256.92 306.38 C 264.02 306.60 270.92 305.27 278.00 305.02 C 282.17 304.92 286.11 304.30 290.15 303.31 C 293.07 303.14 296.02 302.87 298.94 302.86 Z" id="p60" />
<path d="M 75.20 315.65 C 78.06 317.45 79.69 322.46 77.14 325.19 C 75.82 327.06 74.08 327.67 71.97 328.30 C 73.15 326.76 74.64 325.30 75.50 323.56 C 76.08 321.36 75.68 318.69 73.49 317.53 C 71.45 316.12 68.05 316.69 67.05 319.06 C 66.27 321.98 66.82 325.22 66.07 328.15 C 64.58 332.36 59.15 333.89 55.56 331.40 C 53.94 329.84 52.68 327.42 53.42 325.15 C 54.17 322.99 56.63 321.53 58.42 320.30 C 57.52 321.94 56.56 323.53 55.53 325.09 C 56.11 326.75 56.43 329.05 57.73 330.32 C 59.93 331.40 62.31 330.69 63.55 328.58 C 64.17 325.55 63.36 322.15 64.21 319.20 C 66.22 315.28 71.34 314.57 75.20 315.65 Z" id="p61" />
<path d="M 429.34 315.60 C 432.52 316.13 435.68 318.30 438.97 318.50 C 444.22 318.79 449.43 318.25 454.69 318.90 C 450.94 321.31 445.63 320.76 441.22 321.45 C 443.76 325.32 448.18 328.07 449.38 332.47 C 445.70 330.10 443.24 326.77 440.41 323.54 C 437.31 319.77 432.03 318.98 427.71 316.51 C 428.24 316.18 428.79 315.88 429.34 315.60 Z" id="p62" />
<path d="M 206.09 337.11 L 208.07 336.72 C 210.44 339.16 211.80 342.71 213.35 345.72 C 215.43 349.87 216.00 355.44 219.01 358.96 C 222.79 362.88 227.22 366.22 233.02 365.33 C 236.69 365.23 238.39 362.56 239.54 359.45 C 241.82 351.68 239.39 344.54 241.46 336.76 C 243.78 342.22 241.38 347.53 243.06 352.96 C 244.19 356.18 248.20 357.12 250.55 354.58 C 251.69 352.62 252.45 350.45 253.43 348.41 C 253.59 353.67 252.98 358.25 256.17 362.84 C 258.13 366.16 262.82 365.25 266.03 364.99 C 270.89 364.67 272.79 361.06 275.96 357.98 C 280.64 353.72 279.91 347.95 283.06 342.05 C 284.11 342.39 285.16 342.73 286.20 343.07 C 285.47 350.21 283.37 357.03 280.63 363.63 C 278.90 367.64 277.88 372.67 274.95 375.89 C 271.90 379.23 268.37 382.44 263.92 383.72 C 258.99 385.23 253.79 386.13 248.65 386.47 C 243.95 386.75 239.66 385.44 234.96 384.77 C 232.05 384.33 229.30 383.94 226.82 382.23 C 222.11 379.11 217.23 375.31 215.63 369.62 C 214.01 363.31 211.18 357.48 209.86 351.08 C 208.93 346.35 206.20 341.87 206.09 337.11 Z" id="p63" />
<path d="M 392.23 352.51 C 395.05 354.25 397.71 355.44 398.76 358.87 C 399.79 359.32 400.85 359.73 401.84 360.26 C 402.22 364.85 400.88 369.89 399.72 374.31 C 399.35 371.12 400.04 368.12 400.19 364.96 C 400.23 362.27 397.80 359.94 395.97 358.23 C 394.72 358.50 393.47 358.78 392.23 359.09 C 391.84 356.63 390.32 354.69 392.23 352.51 Z" id="p64" />
<path d="M 395.97 358.23 C 397.80 359.94 400.23 362.27 400.19 364.96 C 400.04 368.12 399.35 371.12 399.72 374.31 C 401.49 375.97 402.03 373.35 403.10 372.24 L 402.55 374.11 C 403.72 374.23 404.89 374.35 406.05 374.46 C 404.94 374.40 403.83 374.34 402.72 374.28 C 402.12 375.92 401.51 377.56 400.92 379.19 C 399.04 379.93 397.20 380.72 395.35 381.52 C 395.31 380.05 395.29 378.61 395.12 377.16 C 395.33 380.94 393.29 382.65 389.90 383.70 C 386.75 380.97 382.98 376.94 383.16 372.47 C 384.51 370.19 385.57 367.77 386.64 365.35 C 388.08 365.47 389.52 365.59 390.96 365.71 C 391.65 363.51 392.43 361.45 392.23 359.09 C 393.47 358.78 394.72 358.50 395.97 358.23 Z M 397.38 368.10 C 396.07 367.50 395.21 369.58 396.11 370.45 C 397.41 371.03 398.26 368.96 397.38 368.10 Z" id="p65" />
<path d="M 121.12 360.66 C 121.88 361.28 122.61 361.93 123.33 362.59 C 120.44 366.03 119.53 369.19 118.83 373.56 C 114.69 373.22 110.69 373.24 106.74 374.69 C 110.08 372.27 113.80 371.81 117.79 371.32 C 118.18 369.09 118.58 366.86 118.92 364.62 C 115.62 366.11 112.68 367.67 108.93 367.47 C 106.02 367.60 102.76 366.67 100.35 368.70 C 96.10 366.90 89.86 366.22 88.62 360.92 C 96.34 361.51 102.76 366.79 110.99 365.99 C 115.25 365.36 117.51 362.22 121.12 360.66 Z" id="p66" />
<path d="M 411.10 360.89 C 410.70 364.95 408.98 368.38 407.20 371.96 C 408.86 372.22 410.49 372.44 412.12 372.79 C 410.86 372.99 409.60 373.22 408.35 373.49 C 408.07 373.84 407.79 374.21 407.52 374.58 L 406.05 374.46 C 404.89 374.35 403.72 374.23 402.55 374.11 L 403.10 372.24 C 404.01 369.40 404.70 365.91 406.52 363.51 C 407.51 362.06 409.58 361.58 411.10 360.89 Z" id="p67" />
<path d="M 118.92 364.62 C 118.58 366.86 118.18 369.09 117.79 371.32 C 113.80 371.81 110.08 372.27 106.74 374.69 L 105.70 375.70 C 103.75 378.47 100.80 379.25 98.32 381.38 L 97.10 382.32 C 96.65 382.60 96.20 382.88 95.74 383.14 C 96.79 383.71 97.81 384.29 98.79 384.97 C 100.18 386.26 101.52 387.62 102.88 388.95 C 100.81 390.53 99.52 392.90 96.62 392.26 L 94.90 391.34 C 93.48 390.57 91.98 390.00 90.47 389.43 C 91.14 388.56 91.80 387.68 92.44 386.78 L 92.64 385.86 C 92.10 383.23 91.87 381.31 89.28 379.97 C 89.83 378.56 89.90 377.04 91.51 376.40 C 94.43 375.20 97.50 374.97 100.30 373.33 C 101.12 372.81 101.83 372.21 102.43 371.51 C 102.60 370.13 101.15 369.59 100.35 368.70 C 102.76 366.67 106.02 367.60 108.93 367.47 C 112.68 367.67 115.62 366.11 118.92 364.62 Z" id="p68" />
<path d="M 397.38 368.10 C 398.26 368.96 397.41 371.03 396.11 370.45 C 395.21 369.58 396.07 367.50 397.38 368.10 Z" id="p69" />
<path d="M 100.30 373.33 C 97.50 374.97 94.43 375.20 91.51 376.40 C 89.90 377.04 89.83 378.56 89.28 379.97 C 83.59 378.54 78.88 380.53 73.49 382.04 C 72.74 380.05 71.21 379.21 73.25 377.41 C 79.33 376.84 85.12 377.11 90.99 374.97 C 94.01 373.81 97.12 373.69 100.30 373.33 Z" id="p70" />
<path d="M 408.35 373.49 C 409.60 373.22 410.86 372.99 412.12 372.79 C 413.49 376.91 411.83 380.98 413.89 385.03 C 412.98 385.29 412.08 385.57 411.18 385.89 C 411.11 388.22 411.51 390.36 412.17 392.58 C 414.43 392.85 416.68 393.15 418.93 393.46 C 419.16 394.24 419.39 395.02 419.63 395.80 C 419.92 394.64 420.22 393.49 420.50 392.34 C 422.08 394.84 424.01 396.81 423.78 399.99 C 424.30 403.35 418.20 405.48 416.98 401.92 C 416.26 398.83 418.21 395.37 415.05 393.44 C 410.32 395.83 407.47 400.61 402.45 402.76 C 404.34 399.58 406.96 397.03 409.14 394.08 C 410.38 392.81 408.71 390.63 408.35 389.20 C 409.33 386.41 409.51 383.76 409.33 380.81 C 406.28 385.20 404.68 389.72 400.99 393.58 C 403.00 387.30 403.90 380.12 407.52 374.58 C 407.79 374.21 408.07 373.84 408.35 373.49 Z" id="p71" />
<path d="M 105.70 375.70 C 108.92 378.75 115.56 376.26 119.45 377.60 C 121.30 378.95 122.69 382.17 121.20 384.21 C 117.69 389.61 112.46 394.41 108.43 399.46 C 105.35 403.19 102.95 407.20 99.28 410.44 C 98.69 409.04 97.65 407.57 97.57 406.03 C 98.12 404.36 98.90 402.86 99.69 401.30 C 104.44 397.83 108.53 392.54 111.78 387.67 L 112.06 389.91 C 111.45 391.36 110.80 392.79 110.16 394.23 C 113.81 391.25 116.72 387.34 119.27 383.40 C 120.23 381.75 118.95 380.39 117.55 379.60 C 113.72 378.59 110.08 379.26 106.40 380.48 C 103.63 380.34 100.98 380.46 98.32 381.38 C 100.80 379.25 103.75 378.47 105.70 375.70 Z" id="p72" />
<path d="M 424.34 378.10 C 426.66 378.27 427.14 379.04 428.06 381.08 C 426.80 384.00 423.03 385.64 420.85 387.91 C 419.72 388.72 420.39 390.94 420.37 392.12 L 417.97 391.61 C 418.15 390.73 418.34 389.84 418.52 388.95 C 417.79 387.44 417.07 385.93 416.35 384.41 C 418.54 382.43 420.57 380.36 422.53 378.14 C 423.13 378.12 423.74 378.11 424.34 378.10 Z" id="p73" />
<path d="M 117.55 379.60 C 118.95 380.39 120.23 381.75 119.27 383.40 C 116.72 387.34 113.81 391.25 110.16 394.23 C 110.80 392.79 111.45 391.36 112.06 389.91 L 111.78 387.67 C 111.66 386.90 111.50 386.13 111.30 385.37 C 109.94 384.18 108.51 383.06 107.11 381.90 L 106.40 380.48 C 110.08 379.26 113.72 378.59 117.55 379.60 Z" id="p74" />
<path d="M 400.92 379.19 C 398.88 384.27 398.06 389.49 397.27 394.86 C 397.07 396.49 395.27 399.16 393.39 398.52 C 391.85 396.86 391.98 395.27 392.69 393.23 C 394.09 389.39 395.39 385.67 395.35 381.52 C 397.20 380.72 399.04 379.93 400.92 379.19 Z" id="p75" />
<path d="M 106.40 380.48 L 107.11 381.90 C 104.23 384.23 102.49 384.66 98.79 384.97 C 97.81 384.29 96.79 383.71 95.74 383.14 C 96.20 382.88 96.65 382.60 97.10 382.32 L 98.32 381.38 C 100.98 380.46 103.63 380.34 106.40 380.48 Z" id="p76" />
<path d="M 107.11 381.90 C 108.51 383.06 109.94 384.18 111.30 385.37 C 109.17 385.75 107.05 386.17 104.93 386.60 C 104.54 387.93 104.21 389.30 103.67 390.57 C 102.37 391.92 100.71 392.99 99.39 394.32 C 99.11 396.10 99.21 397.96 99.19 399.76 C 96.90 399.70 94.61 399.67 92.33 399.54 L 90.86 399.14 C 90.68 398.27 90.50 397.40 90.32 396.52 C 87.73 395.23 84.81 394.26 82.46 392.57 C 80.95 391.08 81.14 388.16 80.81 386.18 C 84.77 386.34 88.70 386.36 92.64 385.86 L 92.44 386.78 C 91.80 387.68 91.14 388.56 90.47 389.43 C 91.98 390.00 93.48 390.57 94.90 391.34 C 91.98 391.15 89.09 391.28 86.18 391.47 C 89.02 393.54 94.14 396.22 96.62 392.26 C 99.52 392.90 100.81 390.53 102.88 388.95 C 101.52 387.62 100.18 386.26 98.79 384.97 C 102.49 384.66 104.23 384.23 107.11 381.90 Z" id="p77" />
<path d="M 411.18 385.89 C 412.08 385.57 412.98 385.29 413.89 385.03 C 414.71 384.82 415.53 384.61 416.35 384.41 C 417.07 385.93 417.79 387.44 418.52 388.95 C 418.34 389.84 418.15 390.73 417.97 391.61 L 420.37 392.12 L 420.50 392.34 C 420.22 393.49 419.92 394.64 419.63 395.80 C 419.39 395.02 419.16 394.24 418.93 393.46 C 416.68 393.15 414.43 392.85 412.17 392.58 C 411.51 390.36 411.11 388.22 411.18 385.89 Z" id="p78" />
<path d="M 86.18 391.47 C 89.09 391.28 91.98 391.15 94.90 391.34 L 96.62 392.26 C 94.14 396.22 89.02 393.54 86.18 391.47 Z" id="p79" />
<path d="M 354.10 397.90 C 355.68 401.49 355.68 405.99 357.60 409.44 L 358.69 409.91 C 359.88 408.21 361.04 406.11 361.19 404.01 C 361.05 402.29 360.57 400.56 360.17 398.87 C 361.71 398.45 363.27 397.92 364.86 397.72 C 366.61 397.82 368.75 398.71 368.52 400.83 C 367.03 406.55 363.61 411.92 361.48 417.40 C 360.22 420.88 362.95 425.26 363.07 428.89 C 362.06 435.50 358.23 440.65 352.97 444.56 C 351.75 443.70 350.54 442.83 349.32 441.97 C 351.74 439.36 354.87 436.80 356.61 433.67 C 357.75 431.29 357.27 428.04 357.21 425.47 C 351.43 428.12 349.84 434.38 344.86 437.76 C 342.82 439.11 340.92 438.10 338.74 437.78 C 339.87 433.59 343.11 431.91 346.01 429.02 C 349.89 425.34 353.64 421.65 354.16 416.02 C 354.89 409.79 350.09 404.06 347.38 398.80 C 348.81 395.66 352.03 395.09 354.10 397.90 Z" id="p80" />
<path d="M 90.86 399.14 L 92.33 399.54 C 91.50 401.39 90.79 403.11 88.99 404.23 C 88.03 403.87 87.09 403.49 86.16 403.08 C 86.28 402.23 86.41 401.38 86.53 400.53 C 87.97 400.04 89.40 399.54 90.86 399.14 Z" id="p81" />
<path d="M 154.34 400.35 C 155.01 400.08 155.74 400.12 156.54 400.47 C 161.59 402.83 165.40 407.33 165.48 413.10 C 164.39 415.09 163.23 416.11 160.99 416.68 C 157.65 414.23 154.87 410.89 152.31 407.66 C 150.27 405.42 151.17 401.02 154.34 400.35 Z" id="p82" />
<path d="M 128.19 411.71 C 134.81 413.55 141.25 415.07 148.06 416.07 C 147.67 416.84 147.28 417.61 146.89 418.38 C 142.22 417.86 137.62 416.72 132.98 415.93 C 130.02 415.45 127.33 414.27 124.79 412.69 C 126.00 411.91 126.67 411.20 128.19 411.71 Z" id="p83" />
<path d="M 148.06 416.07 C 151.43 416.71 154.95 416.86 158.25 417.79 C 161.34 418.92 164.55 420.28 167.53 421.68 C 169.48 422.53 169.56 424.27 170.33 426.02 C 166.46 426.02 163.83 424.42 160.93 422.06 C 159.48 420.91 158.06 419.58 156.44 418.67 C 154.42 418.09 152.05 418.43 149.95 418.39 C 148.93 418.41 147.91 418.40 146.89 418.38 C 147.28 417.61 147.67 416.84 148.06 416.07 Z" id="p84" />
<path d="M 375.14 417.22 C 377.98 415.44 381.00 419.35 382.83 421.14 C 384.82 423.01 386.04 426.66 383.02 428.14 C 378.74 428.70 374.32 428.33 370.00 428.53 C 367.77 428.38 364.94 429.11 363.43 427.05 C 364.38 421.83 370.79 419.10 375.14 417.22 Z M 367.00 424.60 C 370.88 428.39 377.35 426.64 382.13 425.94 C 381.16 423.41 381.26 420.80 378.25 419.83 C 374.42 417.87 370.04 422.73 367.00 424.60 Z" id="p85" />
<path d="M 149.95 418.39 C 152.05 418.43 154.42 418.09 156.44 418.67 C 158.06 419.58 159.48 420.91 160.93 422.06 C 159.92 422.19 158.91 422.33 157.90 422.46 C 158.73 424.56 159.67 426.59 160.70 428.59 C 159.32 430.77 158.19 432.64 155.56 433.41 C 149.94 435.27 143.17 438.56 137.22 437.66 C 134.58 436.61 134.37 432.15 133.21 429.87 C 130.89 429.27 127.96 429.38 125.93 428.11 C 124.45 426.94 122.58 426.41 123.24 424.15 C 123.02 422.49 125.96 422.63 127.00 422.72 C 131.26 423.00 135.70 423.57 140.02 423.05 C 143.36 422.62 146.33 421.43 149.53 420.38 C 149.67 419.72 149.81 419.06 149.95 418.39 Z M 140.68 428.20 C 141.66 429.16 142.46 430.79 144.00 430.82 C 147.83 430.94 151.04 429.17 153.62 426.45 C 149.33 427.44 145.06 427.84 140.68 428.20 Z" id="p86" />
<path d="M 378.25 419.83 C 381.26 420.80 381.16 423.41 382.13 425.94 C 377.35 426.64 370.88 428.39 367.00 424.60 C 370.04 422.73 374.42 417.87 378.25 419.83 Z" id="p87" />
<path d="M 229.82 419.47 C 230.48 421.57 230.92 423.64 230.57 425.85 C 229.77 431.27 228.05 436.60 224.22 440.66 C 224.48 439.47 224.76 438.28 225.07 437.11 C 227.49 431.39 228.71 425.54 229.82 419.47 Z" id="p88" />
<path d="M 206.11 425.27 C 208.38 424.86 209.93 426.08 211.84 427.03 C 211.78 431.67 211.25 436.01 212.08 440.61 C 215.40 438.99 217.85 436.18 220.99 434.39 C 221.72 434.55 222.42 434.83 223.09 435.24 L 222.72 436.54 C 220.98 437.07 219.23 437.57 217.48 438.07 C 217.46 439.21 217.43 440.35 217.38 441.49 C 215.14 442.43 213.21 443.50 211.32 445.02 C 211.39 443.60 211.60 442.08 211.37 440.67 C 210.58 439.61 209.62 438.66 208.71 437.70 C 210.18 434.77 211.21 430.04 208.00 427.92 C 205.60 426.42 204.63 428.60 203.17 430.12 C 200.90 433.12 198.05 435.46 195.07 437.73 C 197.02 438.41 198.99 439.07 200.90 439.85 C 197.08 440.71 193.71 441.03 189.90 439.86 C 193.53 436.42 197.55 433.64 200.89 429.89 C 202.45 428.30 204.07 426.23 206.11 425.27 Z" id="p89" />
<path d="M 153.62 426.45 C 151.04 429.17 147.83 430.94 144.00 430.82 C 142.46 430.79 141.66 429.16 140.68 428.20 C 145.06 427.84 149.33 427.44 153.62 426.45 Z" id="p90" />
<path d="M 298.32 426.29 C 300.53 425.87 301.08 427.44 301.42 429.27 C 299.56 430.10 297.69 430.90 295.90 431.88 C 296.36 430.03 296.54 427.40 298.32 426.29 Z" id="p91" />
<path d="M 208.00 427.92 C 211.21 430.04 210.18 434.77 208.71 437.70 C 209.62 438.66 210.58 439.61 211.37 440.67 C 211.60 442.08 211.39 443.60 211.32 445.02 L 210.44 445.66 L 208.13 446.64 C 205.81 450.38 205.27 455.19 202.66 458.66 C 199.73 459.05 196.49 456.90 193.89 455.74 C 196.01 453.39 198.77 451.15 199.64 448.04 C 200.26 446.02 201.09 443.81 201.05 441.67 L 200.90 439.85 C 198.99 439.07 197.02 438.41 195.07 437.73 C 198.05 435.46 200.90 433.12 203.17 430.12 C 204.63 428.60 205.60 426.42 208.00 427.92 Z" id="p92" />
<path d="M 281.38 429.33 C 281.73 430.51 282.09 431.69 282.45 432.86 C 280.41 432.09 278.82 431.68 276.63 432.01 C 276.95 437.39 275.81 441.53 273.40 446.28 C 270.35 449.69 267.44 453.16 263.82 455.99 C 262.98 454.44 261.46 452.67 261.47 450.85 C 265.02 447.26 270.23 446.93 273.34 442.36 C 276.41 438.55 274.35 433.78 275.76 429.85 C 276.97 427.27 279.33 428.99 281.38 429.33 Z" id="p93" />
<path d="M 301.42 429.27 C 301.59 430.02 301.76 430.77 301.94 431.52 C 302.19 432.40 302.44 433.27 302.71 434.15 C 300.97 436.00 299.28 437.63 298.69 440.21 C 298.41 441.58 298.22 442.96 298.05 444.35 L 298.11 444.97 C 298.28 445.68 298.46 446.39 298.65 447.09 C 298.59 447.77 298.53 448.45 298.46 449.12 C 300.00 449.23 301.53 449.31 303.07 449.43 C 304.39 449.59 305.68 449.83 306.97 450.17 C 308.90 450.78 310.78 451.48 312.76 451.91 C 313.61 453.28 314.46 454.60 315.17 456.05 C 313.95 458.13 311.54 459.50 309.14 459.55 C 305.55 458.82 303.71 456.26 300.03 458.43 L 299.01 458.94 C 298.06 458.30 297.12 457.66 296.18 457.01 L 295.39 455.36 C 294.96 454.88 294.51 454.41 294.06 453.95 C 293.36 453.32 292.66 452.69 291.95 452.07 C 292.89 447.68 292.66 443.36 292.09 438.95 C 292.68 438.49 293.27 438.03 293.86 437.58 C 294.31 437.38 294.76 437.19 295.21 436.99 C 295.38 435.28 295.59 433.58 295.90 431.88 C 297.69 430.90 299.56 430.10 301.42 429.27 Z" id="p94" />
<path d="M 282.45 432.86 C 282.67 433.55 282.88 434.24 283.10 434.93 C 283.96 437.57 284.51 440.12 284.15 442.92 C 283.45 443.58 282.76 444.25 282.08 444.93 C 281.18 446.47 280.39 448.10 279.62 449.71 C 278.81 448.72 278.01 447.74 277.17 446.78 C 276.45 446.36 275.72 445.97 274.98 445.59 L 273.40 446.28 C 275.81 441.53 276.95 437.39 276.63 432.01 C 278.82 431.68 280.41 432.09 282.45 432.86 Z" id="p95" />
<path d="M 306.53 430.45 C 306.16 435.73 302.24 437.17 298.69 440.21 C 299.28 437.63 300.97 436.00 302.71 434.15 C 302.44 433.27 302.19 432.40 301.94 431.52 C 303.46 431.14 305.00 430.79 306.53 430.45 Z" id="p96" />
<path d="M 223.09 435.24 C 223.78 435.83 224.44 436.45 225.07 437.11 C 224.76 438.28 224.48 439.47 224.22 440.66 C 223.87 442.55 223.64 444.45 223.47 446.36 L 226.28 446.32 L 225.59 446.80 C 224.78 447.00 223.96 447.18 223.15 447.36 C 223.00 445.78 222.86 444.20 222.69 442.63 C 220.73 440.44 222.23 438.97 222.72 436.54 L 223.09 435.24 Z" id="p97" />
<path d="M 283.10 434.93 C 284.39 436.18 286.00 437.48 286.80 439.11 C 286.71 440.86 285.26 441.73 284.15 442.92 C 284.51 440.12 283.96 437.57 283.10 434.93 Z" id="p98" />
<path d="M 222.72 436.54 C 222.23 438.97 220.73 440.44 222.69 442.63 C 222.86 444.20 223.00 445.78 223.15 447.36 C 223.96 447.18 224.78 447.00 225.59 446.80 C 225.27 447.83 224.96 448.87 224.66 449.92 C 223.66 450.50 222.69 451.14 221.72 451.79 C 221.11 452.21 220.49 452.64 219.88 453.08 C 217.20 453.64 214.53 454.27 211.84 454.74 C 213.45 449.59 217.23 446.97 217.38 441.49 C 217.43 440.35 217.46 439.21 217.48 438.07 C 219.23 437.57 220.98 437.07 222.72 436.54 Z M 219.34 446.13 C 218.41 446.65 217.55 448.60 219.05 448.94 C 221.10 449.06 221.96 445.32 219.34 446.13 Z" id="p99" />
<path d="M 292.09 438.95 C 292.66 443.36 292.89 447.68 291.95 452.07 C 292.66 452.69 293.36 453.32 294.06 453.95 C 289.06 455.45 286.36 459.64 281.70 461.74 C 280.82 463.71 280.84 466.40 277.99 466.23 C 275.96 466.03 275.79 464.33 274.82 462.89 C 275.74 463.52 276.67 464.13 277.59 464.74 C 279.15 462.78 280.37 460.70 281.45 458.44 C 285.68 455.59 290.31 451.83 292.18 446.93 C 292.84 444.98 288.76 444.15 289.23 442.09 C 289.24 440.81 291.26 439.79 292.09 438.95 Z" id="p100" />
<path d="M 234.24 438.88 C 234.67 439.92 235.06 440.98 235.41 442.06 C 234.41 446.57 228.24 447.96 224.66 449.92 C 224.96 448.87 225.27 447.83 225.59 446.80 L 226.28 446.32 C 229.47 444.31 231.91 441.81 234.24 438.88 Z" id="p101" />
<path d="M 308.54 439.81 C 309.11 443.53 308.17 446.70 306.97 450.17 C 305.68 449.83 304.39 449.59 303.07 449.43 C 303.87 447.57 304.61 445.69 305.28 443.77 C 302.81 444.51 300.75 445.63 298.65 447.09 C 298.46 446.39 298.28 445.68 298.11 444.97 L 298.05 444.35 C 301.42 442.49 304.80 440.82 308.54 439.81 Z" id="p102" />
<path d="M 201.05 441.67 C 201.09 443.81 200.26 446.02 199.64 448.04 C 198.77 451.15 196.01 453.39 193.89 455.74 C 196.49 456.90 199.73 459.05 202.66 458.66 C 205.27 455.19 205.81 450.38 208.13 446.64 L 210.44 445.66 C 207.28 451.35 205.47 457.87 202.01 463.32 C 199.92 464.40 198.74 460.44 197.89 459.15 C 196.28 459.05 193.72 459.81 192.46 458.59 C 191.88 456.72 192.24 455.02 193.70 453.68 C 195.80 451.64 197.78 449.67 199.25 447.10 C 191.86 447.21 187.56 452.74 179.99 451.87 C 177.40 452.06 176.67 449.19 179.06 448.04 C 182.23 447.70 185.09 448.26 188.10 446.91 C 192.44 444.92 197.12 444.29 201.05 441.67 Z" id="p103" />
<path d="M 349.32 441.97 C 350.54 442.83 351.75 443.70 352.97 444.56 C 350.78 445.43 348.51 445.83 346.19 446.20 C 347.19 444.74 348.17 443.31 349.32 441.97 Z" id="p104" />
<path d="M 305.28 443.77 C 304.61 445.69 303.87 447.57 303.07 449.43 C 301.53 449.31 300.00 449.23 298.46 449.12 C 298.53 448.45 298.59 447.77 298.65 447.09 C 300.75 445.63 302.81 444.51 305.28 443.77 Z" id="p105" />
<path d="M 282.08 444.93 C 282.23 446.32 282.38 447.70 282.53 449.09 C 281.64 451.35 280.77 453.62 279.89 455.88 C 278.76 455.17 277.92 454.00 276.48 454.55 C 274.50 455.87 272.91 457.93 271.31 459.69 C 271.95 460.31 272.59 460.92 273.24 461.53 C 272.14 462.22 271.04 462.93 269.95 463.65 C 268.77 462.61 267.62 461.52 266.44 460.48 C 269.13 458.24 272.38 456.26 274.69 453.64 C 276.34 451.73 276.62 449.15 277.17 446.78 C 278.01 447.74 278.81 448.72 279.62 449.71 C 280.39 448.10 281.18 446.47 282.08 444.93 Z" id="p106" />
<path d="M 219.34 446.13 C 221.96 445.32 221.10 449.06 219.05 448.94 C 217.55 448.60 218.41 446.65 219.34 446.13 Z" id="p107" />
<path d="M 221.72 451.79 C 222.39 457.51 220.76 462.31 219.37 467.71 C 218.16 468.04 216.94 468.38 215.72 468.71 C 217.51 463.60 219.13 458.46 219.88 453.08 C 220.49 452.64 221.11 452.21 221.72 451.79 Z" id="p108" />
<path d="M 312.76 451.91 C 315.60 452.51 318.32 452.89 320.87 454.38 C 320.53 455.71 318.97 456.18 317.92 456.94 C 315.41 458.28 313.36 460.34 310.85 461.64 C 307.07 460.81 304.05 458.64 300.03 458.43 C 303.71 456.26 305.55 458.82 309.14 459.55 C 311.54 459.50 313.95 458.13 315.17 456.05 C 314.46 454.60 313.61 453.28 312.76 451.91 Z" id="p109" />
<path d="M 276.48 454.55 C 277.92 454.00 278.76 455.17 279.89 455.88 C 280.41 456.73 280.94 457.58 281.45 458.44 C 280.37 460.70 279.15 462.78 277.59 464.74 C 276.67 464.13 275.74 463.52 274.82 462.89 C 274.29 462.45 273.76 461.99 273.24 461.53 C 272.59 460.92 271.95 460.31 271.31 459.69 C 272.91 457.93 274.50 455.87 276.48 454.55 Z" id="p110" />
<path d="M 296.18 457.01 C 297.12 457.66 298.06 458.30 299.01 458.94 C 294.54 461.74 290.03 463.78 284.63 463.73 C 288.28 461.23 292.31 459.23 296.18 457.01 Z" id="p111" />
<path d="M 266.44 460.48 C 267.62 461.52 268.77 462.61 269.95 463.65 C 269.25 464.16 268.55 464.68 267.85 465.21 C 266.78 464.68 265.71 464.16 264.65 463.63 C 265.21 462.57 265.76 461.46 266.44 460.48 Z" id="p112" />
<path d="M 219.37 467.71 C 218.81 471.94 218.68 475.89 216.09 479.50 C 215.00 478.65 212.08 477.80 212.57 476.04 C 213.38 473.52 214.74 471.18 215.72 468.71 C 216.94 468.38 218.16 468.04 219.37 467.71 Z" id="p113" />
</defs>
<g stroke-width="10pt">
<use stroke="#ffffff" xlink:href="#p0" />
<use stroke="#cd7a3f" xlink:href="#p1" />
<use stroke="#ffffff" xlink:href="#p2" />
<use stroke="#a48566" xlink:href="#p3" />
<use stroke="#ad7f63" xlink:href="#p4" />
<use stroke="#a3856f" xlink:href="#p5" />
<use stroke="#ab9a83" xlink:href="#p6" />
<use stroke="#ae9e8b" xlink:href="#p7" />
<use stroke="#ffffff" xlink:href="#p8" />
<use stroke="#a58668" xlink:href="#p9" />
<use stroke="#ad7f59" xlink:href="#p10" />
<use stroke="#a99170" xlink:href="#p11" />
<use stroke="#ad9d83" xlink:href="#p12" />
<use stroke="#a89176" xlink:href="#p13" />
<use stroke="#aca18e" xlink:href="#p14" />
<use stroke="#ad947b" xlink:href="#p15" />
<use stroke="#a28461" xlink:href="#p16" />
<use stroke="#ae8f6f" xlink:href="#p17" />
<use stroke="#ffffff" xlink:href="#p18" />
<use stroke="#aa835f" xlink:href="#p19" />
<use stroke="#b0916d" xlink:href="#p20" />
<use stroke="#ffffff" xlink:href="#p21" />
<use stroke="#fffefd" xlink:href="#p22" />
<use stroke="#a68862" xlink:href="#p23" />
<use stroke="#b48568" xlink:href="#p24" />
<use stroke="#afa491" xlink:href="#p25" />
<use stroke="#a38c6b" xlink:href="#p26" />
<use stroke="#ffffff" xlink:href="#p27" />
<use stroke="#b0a596" xlink:href="#p28" />
<use stroke="#ce7a41" xlink:href="#p29" />
<use stroke="#cd7b43" xlink:href="#p30" />
<use stroke="#f27022" xlink:href="#p31" />
<use stroke="#b2865d" xlink:href="#p32" />
<use stroke="#a37f5c" xlink:href="#p33" />
<use stroke="#988962" xlink:href="#p34" />
<use stroke="#a88462" xlink:href="#p35" />
<use stroke="#aa835a" xlink:href="#p36" />
<use stroke="#ad9c84" xlink:href="#p37" />
<use stroke="#c97c43" xlink:href="#p38" />
<use stroke="#ab825e" xlink:href="#p39" />
<use stroke="#b3865d" xlink:href="#p40" />
<use stroke="#a88962" xlink:href="#p41" />
<use stroke="#fffffe" xlink:href="#p42" />
<use stroke="#b68b64" xlink:href="#p43" />
<use stroke="#a78764" xlink:href="#p44" />
<use stroke="#a78d74" xlink:href="#p45" />
<use stroke="#ffffff" xlink:href="#p46" />
<use stroke="#a1815e" xlink:href="#p47" />
<use stroke="#93846d" xlink:href="#p48" />
<use stroke="#a28869" xlink:href="#p49" />
<use stroke="#cf9f79" xlink:href="#p50" />
<use stroke="#ac977f" xlink:href="#p51" />
<use stroke="#ffffff" xlink:href="#p52" />
<use stroke="#c0a68e" xlink:href="#p53" />
<use stroke="#9c7c5a" xlink:href="#p54" />
<use stroke="#ae9b87" xlink:href="#p55" />
<use stroke="#af9c85" xlink:href="#p56" />
<use stroke="#ffffff" xlink:href="#p57" />
<use stroke="#cd7a40" xlink:href="#p58" />
<use stroke="#ee7121" xlink:href="#p59" />
<use stroke="#ef7120" xlink:href="#p60" />
<use stroke="#ab845c" xlink:href="#p61" />
<use stroke="#af9a7c" xlink:href="#p62" />
<use stroke="#ee7222" xlink:href="#p63" />
<use stroke="#ba855d" xlink:href="#p64" />
<use stroke="#e1752b" xlink:href="#p65" />
<use stroke="#bf7a56" xlink:href="#p66" />
<use stroke="#c17f4e" xlink:href="#p67" />
<use stroke="#e1742a" xlink:href="#p68" />
<use stroke="#f59c55" xlink:href="#p69" />
<use stroke="#b28257" xlink:href="#p70" />
<use stroke="#ca7b3c" xlink:href="#p71" />
<use stroke="#ca7b3e" xlink:href="#p72" />
<use stroke="#d5773d" xlink:href="#p73" />
<use stroke="#e8712b" xlink:href="#p74" />
<use stroke="#bb7e50" xlink:href="#p75" />
<use stroke="#fffcf8" xlink:href="#p76" />
<use stroke="#ca7d3c" xlink:href="#p77" />
<use stroke="#e67020" xlink:href="#p78" />
<use stroke="#fef9f2" xlink:href="#p79" />
<use stroke="#d2793b" xlink:href="#p80" />
<use stroke="#a7805a" xlink:href="#p81" />
<use stroke="#db762e" xlink:href="#p82" />
<use stroke="#af8862" xlink:href="#p83" />
<use stroke="#b48255" xlink:href="#p84" />
<use stroke="#c1844a" xlink:href="#p85" />
<use stroke="#dc762f" xlink:href="#p86" />
<use stroke="#e67323" xlink:href="#p87" />
<use stroke="#a58169" xlink:href="#p88" />
<use stroke="#be7e52" xlink:href="#p89" />
<use stroke="#fff5e8" xlink:href="#p90" />
<use stroke="#be976e" xlink:href="#p91" />
<use stroke="#ea7226" xlink:href="#p92" />
<use stroke="#ca7c48" xlink:href="#p93" />
<use stroke="#e1752b" xlink:href="#p94" />
<use stroke="#df752d" xlink:href="#p95" />
<use stroke="#bf8b5c" xlink:href="#p96" />
<use stroke="#ebc49e" xlink:href="#p97" />
<use stroke="#caa07b" xlink:href="#p98" />
<use stroke="#ce7b37" xlink:href="#p99" />
<use stroke="#bb845f" xlink:href="#p100" />
<use stroke="#b58268" xlink:href="#p101" />
<use stroke="#b97e4f" xlink:href="#p102" />
<use stroke="#b88157" xlink:href="#p103" />
<use stroke="#bea490" xlink:href="#p104" />
<use stroke="#fffbf4" xlink:href="#p105" />
<use stroke="#c47c47" xlink:href="#p106" />
<use stroke="#ee975d" xlink:href="#p107" />
<use stroke="#b79776" xlink:href="#p108" />
<use stroke="#c18558" xlink:href="#p109" />
<use stroke="#e5722a" xlink:href="#p110" />
<use stroke="#aa815a" xlink:href="#p111" />
<use stroke="#bd9f87" xlink:href="#p112" />
<use stroke="#c87c4e" xlink:href="#p113" />
</g>
<g>
<use fill="#ffffff" xlink:href="#p0" />
<use fill="#cd7a3f" xlink:href="#p1" />
<use fill="#ffffff" xlink:href="#p2" />
<use fill="#a48566" xlink:href="#p3" />
<use fill="#ad7f63" xlink:href="#p4" />
<use fill="#a3856f" xlink:href="#p5" />
<use fill="#ab9a83" xlink:href="#p6" />
<use fill="#ae9e8b" xlink:href="#p7" />
<use fill="#ffffff" xlink:href="#p8" />
<use fill="#a58668" xlink:href="#p9" />
<use fill="#ad7f59" xlink:href="#p10" />
<use fill="#a99170" xlink:href="#p11" />
<use fill="#ad9d83" xlink:href="#p12" />
<use fill="#a89176" xlink:href="#p13" />
<use fill="#aca18e" xlink:href="#p14" />
<use fill="#ad947b" xlink:href="#p15" />
<use fill="#a28461" xlink:href="#p16" />
<use fill="#ae8f6f" xlink:href="#p17" />
<use fill="#ffffff" xlink:href="#p18" />
<use fill="#aa835f" xlink:href="#p19" />
<use fill="#b0916d" xlink:href="#p20" />
<use fill="#ffffff" xlink:href="#p21" />
<use fill="#fffefd" xlink:href="#p22" />
<use fill="#a68862" xlink:href="#p23" />
<use fill="#b48568" xlink:href="#p24" />
<use fill="#afa491" xlink:href="#p25" />
<use fill="#a38c6b" xlink:href="#p26" />
<use fill="#ffffff" xlink:href="#p27" />
<use fill="#b0a596" xlink:href="#p28" />
<use fill="#ce7a41" xlink:href="#p29" />
<use fill="#cd7b43" xlink:href="#p30" />
<use fill="#f27022" xlink:href="#p31" />
<use fill="#b2865d" xlink:href="#p32" />
<use fill="#a37f5c" xlink:href="#p33" />
<use fill="#988962" xlink:href="#p34" />
<use fill="#a88462" xlink:href="#p35" />
<use fill="#aa835a" xlink:href="#p36" />
<use fill="#ad9c84" xlink:href="#p37" />
<use fill="#c97c43" xlink:href="#p38" />
<use fill="#ab825e" xlink:href="#p39" />
<use fill="#b3865d" xlink:href="#p40" />
<use fill="#a88962" xlink:href="#p41" />
<use fill="#fffffe" xlink:href="#p42" />
<use fill="#b68b64" xlink:href="#p43" />
<use fill="#a78764" xlink:href="#p44" />
<use fill="#a78d74" xlink:href="#p45" />
<use fill="#ffffff" xlink:href="#p46" />
<use fill="#a1815e" xlink:href="#p47" />
<use fill="#93846d" xlink:href="#p48" />
<use fill="#a28869" xlink:href="#p49" />
<use fill="#cf9f79" xlink:href="#p50" />
<use fill="#ac977f" xlink:href="#p51" />
<use fill="#ffffff" xlink:href="#p52" />
<use fill="#c0a68e" xlink:href="#p53" />
<use fill="#9c7c5a" xlink:href="#p54" />
<use fill="#ae9b87" xlink:href="#p55" />
<use fill="#af9c85" xlink:href="#p56" />
<use fill="#ffffff" xlink:href="#p57" />
<use fill="#cd7a40" xlink:href="#p58" />
<use fill="#ee7121" xlink:href="#p59" />
<use fill="#ef7120" xlink:href="#p60" />
<use fill="#ab845c" xlink:href="#p61" />
<use fill="#af9a7c" xlink:href="#p62" />
<use fill="#ee7222" xlink:href="#p63" />
<use fill="#ba855d" xlink:href="#p64" />
<use fill="#e1752b" xlink:href="#p65" />
<use fill="#bf7a56" xlink:href="#p66" />
<use fill="#c17f4e" xlink:href="#p67" />
<use fill="#e1742a" xlink:href="#p68" />
<use fill="#f59c55" xlink:href="#p69" />
<use fill="#b28257" xlink:href="#p70" />
<use fill="#ca7b3c" xlink:href="#p71" />
<use fill="#ca7b3e" xlink:href="#p72" />
<use fill="#d5773d" xlink:href="#p73" />
<use fill="#e8712b" xlink:href="#p74" />
<use fill="#bb7e50" xlink:href="#p75" />
<use fill="#fffcf8" xlink:href="#p76" />
<use fill="#ca7d3c" xlink:href="#p77" />
<use fill="#e67020" xlink:href="#p78" />
<use fill="#fef9f2" xlink:href="#p79" />
<use fill="#d2793b" xlink:href="#p80" />
<use fill="#a7805a" xlink:href="#p81" />
<use fill="#db762e" xlink:href="#p82" />
<use fill="#af8862" xlink:href="#p83" />
<use fill="#b48255" xlink:href="#p84" />
<use fill="#c1844a" xlink:href="#p85" />
<use fill="#dc762f" xlink:href="#p86" />
<use fill="#e67323" xlink:href="#p87" />
<use fill="#a58169" xlink:href="#p88" />
<use fill="#be7e52" xlink:href="#p89" />
<use fill="#fff5e8" xlink:href="#p90" />
<use fill="#be976e" xlink:href="#p91" />
<use fill="#ea7226" xlink:href="#p92" />
<use fill="#ca7c48" xlink:href="#p93" />
<use fill="#e1752b" xlink:href="#p94" />
<use fill="#df752d" xlink:href="#p95" />
<use fill="#bf8b5c" xlink:href="#p96" />
<use fill="#ebc49e" xlink:href="#p97" />
<use fill="#caa07b" xlink:href="#p98" />
<use fill="#ce7b37" xlink:href="#p99" />
<use fill="#bb845f" xlink:href="#p100" />
<use fill="#b58268" xlink:href="#p101" />
<use fill="#b97e4f" xlink:href="#p102" />
<use fill="#b88157" xlink:href="#p103" />
<use fill="#bea490" xlink:href="#p104" />
<use fill="#fffbf4" xlink:href="#p105" />
<use fill="#c47c47" xlink:href="#p106" />
<use fill="#ee975d" xlink:href="#p107" />
<use fill="#b79776" xlink:href="#p108" />
<use fill="#c18558" xlink:href="#p109" />
<use fill="#e5722a" xlink:href="#p110" />
<use fill="#aa815a" xlink:href="#p111" />
<use fill="#bd9f87" xlink:href="#p112" />
<use fill="#c87c4e" xlink:href="#p113" />
</g>
</svg>