<svg id="图层_2" data-name="图层 2" xmlns="http://www.w3.org/2000/svg" viewBox="0 0 1205.44 306.83"><path d="M112.15,244.5s-10.74-8.2-38-8.2c-25.54,0-37.62,7.95-38,8.2a40.45,40.45,0,0,1,76,0Z"/><path d="M247,276.91c28.76,0,42.13-9.1,42.13-9.1a44.84,44.84,0,0,1-84.25,0S216.78,276.91,247,276.91Z"/><path d="M80.86,172.43a40.43,40.43,0,0,0-80.86,0Z"/><path d="M242.47,172.43a40.43,40.43,0,1,0,80.86,0Z"/><circle cx="160.91" cy="49.98" r="40.43"/><path d="M38.58,98.57a40.44,40.44,0,1,1,76,0s-12.06,8.21-38,8.21C49.32,106.78,38.58,98.57,38.58,98.57Z"/><path d="M285,73.39a40.43,40.43,0,1,1-76,0s12.06-8.21,38-8.21C274.27,65.18,285,73.39,285,73.39Z"/><path d="M560.94,77.31V255.52H546.43V243.91H417.55v11.61H403V77.31ZM546.43,230.44V91H417.55V230.44ZM545.6,165l-5.8,12.85c-24-6.63-42.68-13.26-58-21.55-15.33,8.08-34,15.13-57.81,22.38l-5.6-11.6c20.73-5.81,37.51-11.61,51.39-18A130.16,130.16,0,0,1,447.38,130a152.16,152.16,0,0,1-18,16.57l-7.05-9.11C437.23,125,451.94,106.74,460,92.65l11.4,4.76c-2.69,4.77-5.59,9.33-8.91,14.09H527v11a171.65,171.65,0,0,1-33.15,26.93C508.93,156.05,526.13,160.61,545.6,165ZM438.47,195.22c20.73,1.86,62.38,10.57,82.06,17l-2.28,12.85c-19.89-7.88-60.92-16.37-81.43-18.24Zm72.94-12.85L509.55,195c-14.09-5.8-43.72-12.64-58-14.09l1.66-11.4C467.28,171.39,496.7,178,511.41,182.37Zm-29.83-39.16c11.39-6.22,20.51-13.06,27.76-20.72H455.26A104.77,104.77,0,0,0,481.58,143.21Z"/><path d="M679.26,163.72V252.2h-14.5V163.72H635.54c-1,44.76-6.63,60.3-26.94,90.35L595.13,246c20.31-27.77,25.08-40.62,25.91-82.27H593.68v-14.5h27.56V94.93H602.18V80.21h97.39V94.93H679.26v54.29h27.36v14.5Zm-14.5-14.5V94.93h-29v54.29ZM774.58,188C757,209.1,732.1,233.76,696.25,253.86l-9.11-13.26c34.6-18.24,59.67-42.69,77.29-63.2ZM757,124.56l10.57,10.77c-17,19.48-40,39.37-63,54.92l-8.7-12.85A289.57,289.57,0,0,0,757,124.56Zm-60.72-7c18.65-11.6,41.86-31.08,56.78-48.28l10.36,10.36c-15.33,18-38.75,37.51-58.64,50.56Z"/><path d="M983.46,231.69,981,246.81c-31.29,1.66-64.86,2.28-96.14.63-33.57-1.87-52.84-8.5-64-32.95-3.32,13.26-8.29,25.49-14.92,39.78l-13.68-4.56c13.47-28.59,19.89-45.79,19.89-86.2l14.51.63a279.82,279.82,0,0,1-1.87,28.8c4.15,14.3,9.95,23.41,18.86,29.42V150.25H800.28V136.16h39.58V108H807.12V93.68h32.74V68.2l14.71.41V93.68h29.84V108H854.57v28.18H890v14.09H858.09v31.5h29.64v14.3H858.09v32.53c7.88,2.28,17.2,3.31,28.39,3.94C918.19,234.17,951.76,233.35,983.46,231.69Zm-34-136.76H892.91V80.42H964v64.45H910.11v38.74c0,12.85,2.48,14.72,14.29,15.55a103.7,103.7,0,0,0,16,0c11.6-.83,15.75-3.11,17-8.09a82.27,82.27,0,0,0,2.49-17.82l14.09,5c-.83,7.87-1.66,15.74-3.94,23.2-1.86,5.81-6.63,10.78-25.49,12.23a163.7,163.7,0,0,1-24.66,0c-18-1.45-23.62-6.42-23.62-26.94V130.36h53.26Z"/><path d="M1000.66,129.53l8.29-11.19c10.36,6.42,27.15,19.48,36.47,28.18l-8.49,13.06C1027.39,149.84,1010.4,135.54,1000.66,129.53ZM1040.24,177c-4.76,20.1-12.22,50.15-20.93,75.22l-14.09-4.35c8.91-23.83,16.37-52.63,21.14-74.8l7,2.07Zm-30.87-92.41,8.49-11c9.33,5.8,26.11,19.07,34.4,27.15l-8.91,12.64C1035.27,104.87,1017.86,90.16,1009.37,84.57Zm63,61.75c0,50.14-5.8,75-24.24,109.61l-13.89-6.63c18-34.4,23.21-56.57,23.21-102.36V79h128.47V92.85H1072.36Zm34.81,60.09c-8.7,13.88-21.76,31.49-33.36,42.48l-10-9.12c11.81-10.78,23.63-25.9,32.54-40.41Zm30.46-16.79V229c0,16.79-4.56,19.69-21.34,22l-12.64,1.66-5-14.51,12.43-1c10.77-.83,12-2.91,12-13.89V189.62h-34.61V116.06h28.39a180.46,180.46,0,0,0,5.8-20.72l14.51,2.49c-1.45,5.59-3.32,12.22-5.18,18.23h40v73.56Zm-35-60.92v17.2h55.54V128.7Zm0,48.28h55.54V158.54h-55.54Zm89.52,61.75-10.57,9.53c-8.49-13.46-21.76-31.7-32.12-42.06l9.74-7.25C1170,209.52,1183.63,226.92,1192.13,238.73Z"/></svg>