<?xml version="1.0" encoding="utf-8"?>
<!-- Generator: Adobe Illustrator 24.2.3, SVG Export Plug-In . SVG Version: 6.00 Build 0)  -->
<svg version="1.1" id="图层_2_1_" xmlns="http://www.w3.org/2000/svg" xmlns:xlink="http://www.w3.org/1999/xlink" x="0px"
	 y="0px" viewBox="0 0 323.3 306.8" style="enable-background:new 0 0 323.3 306.8;" xml:space="preserve">
<path d="M112.2,244.5c0,0-10.7-8.2-38-8.2c-25.5,0-37.6,7.9-38,8.2c7.7-21,30.9-31.8,51.9-24.1C99.2,224.5,108.1,233.3,112.2,244.5z
	"/>
<path d="M247,276.9c28.8,0,42.1-9.1,42.1-9.1c-8.5,23.3-34.2,35.2-57.5,26.8c-12.4-4.5-22.2-14.3-26.8-26.8
	C204.9,267.8,216.8,276.9,247,276.9z"/>
<path d="M80.9,172.4c0-22.3-18.1-40.4-40.4-40.4C18.1,132,0,150.1,0,172.4H80.9z"/>
<path d="M242.5,172.4c0,22.3,18.1,40.4,40.4,40.4c22.3,0,40.4-18.1,40.4-40.4l0,0H242.5z"/>
<ellipse transform="matrix(0.1091 -0.994 0.994 0.1091 93.6704 204.4756)" cx="160.9" cy="50" rx="40.4" ry="40.4"/>
<path d="M38.6,98.6c-7.6-21,3.2-44.2,24.2-51.8s44.2,3.2,51.8,24.2c3.3,8.9,3.3,18.7,0,27.7c0,0-12.1,8.2-38,8.2
	C49.3,106.8,38.6,98.6,38.6,98.6z"/>
<path d="M285,73.4c7.6,21-3.2,44.2-24.2,51.8c-21,7.6-44.2-3.2-51.8-24.2c-3.2-8.9-3.2-18.7,0-27.6c0,0,12.1-8.2,38-8.2
	C274.3,65.2,285,73.4,285,73.4z"/>
</svg>
